<?xml version="1.0" standalone="no"?>
<!DOCTYPE svg PUBLIC "-//W3C//DTD SVG 20010904//EN"
 "http://www.w3.org/TR/2001/REC-SVG-20010904/DTD/svg10.dtd">
<svg version="1.0" xmlns="http://www.w3.org/2000/svg"
 width="1889.000000pt" height="1889.000000pt" viewBox="0 0 1889.000000 1889.000000"
 preserveAspectRatio="xMidYMid meet">
<metadata>
Created by potrace 1.14, written by Peter Selinger 2001-2017
</metadata>
<g transform="translate(0.000000,1889.000000) scale(0.100000,-0.100000)"
fill="#000000" stroke="none">
<path d="M9356 18833 c-1 -1 -73 -3 -159 -4 -86 0 -155 -5 -152 -9 3 -5 1 -12
-5 -15 -6 -4 -9 -1 -8 6 3 15 -109 22 -118 7 -3 -4 2 -5 10 -2 9 3 16 2 16 -3
0 -11 -27 -14 -50 -7 -13 5 -13 6 0 15 13 9 13 10 0 6 -8 -2 -14 -10 -12 -16
1 -8 -39 -11 -135 -11 -93 0 -133 -3 -123 -10 8 -5 10 -10 4 -10 -5 0 -15 5
-22 12 -9 9 -12 9 -12 0 0 -7 -5 -12 -11 -12 -5 0 -7 6 -3 13 5 8 2 8 -9 -2
-14 -11 -17 -11 -17 0 0 10 -2 11 -8 2 -5 -8 -43 -13 -105 -14 -53 -2 -97 -7
-97 -11 0 -5 19 -6 43 -4 23 3 36 2 29 -3 -21 -13 -94 -12 -110 2 -13 9 -14 9
-8 0 5 -10 -5 -13 -39 -13 -31 0 -44 -4 -39 -11 4 -7 -1 -7 -15 1 -16 8 -26 8
-35 1 -9 -7 -16 -7 -26 2 -10 9 -11 9 -6 0 5 -10 -6 -13 -41 -14 -26 -1 -55
-1 -65 0 -9 1 -20 -3 -24 -10 -5 -8 -3 -10 7 -4 8 5 11 4 6 0 -4 -5 -17 -10
-29 -12 -18 -3 -19 -1 -7 14 13 17 13 17 -7 1 -14 -12 -38 -18 -73 -18 -29 0
-50 -4 -47 -8 3 -5 -1 -9 -9 -9 -8 0 -12 3 -10 7 2 4 -2 7 -10 7 -8 0 -12 -4
-9 -9 3 -4 -13 -8 -35 -8 -21 0 -41 -5 -43 -12 -5 -13 -21 -16 -95 -19 -29 -1
-53 -7 -53 -12 0 -5 -8 -3 -17 4 -11 10 -14 10 -9 2 5 -10 -6 -13 -46 -14 -29
-1 -56 -1 -60 0 -4 0 -5 -5 -2 -12 3 -9 -8 -14 -38 -16 -24 -1 -44 -6 -46 -12
-2 -5 -8 -9 -13 -9 -6 0 -7 6 -3 13 6 10 4 10 -7 0 -7 -7 -30 -13 -50 -13 -21
0 -39 -6 -42 -13 -3 -7 -22 -14 -43 -15 -21 -2 -43 -7 -50 -13 -8 -7 -14 -6
-19 1 -5 8 -11 8 -19 1 -7 -6 -31 -12 -54 -14 -23 -2 -44 -6 -48 -10 -4 -3 3
-5 15 -2 11 2 21 0 21 -6 0 -5 -22 -9 -50 -9 -30 0 -50 -4 -50 -11 0 -8 -6 -7
-17 2 -11 10 -14 10 -9 2 7 -14 4 -14 -66 -16 -21 0 -38 -5 -38 -10 0 -5 7 -6
16 -3 8 3 12 2 9 -4 -3 -6 -22 -10 -41 -10 -26 0 -33 -3 -28 -12 5 -8 0 -7
-11 2 -11 9 -16 10 -11 3 5 -9 -3 -13 -28 -14 -49 -2 -53 -3 -63 -13 -5 -5 -3
-6 5 -2 6 4 12 2 12 -3 0 -6 -15 -11 -33 -11 -18 0 -37 -4 -43 -10 -5 -5 -26
-10 -47 -12 -20 -1 -37 -6 -37 -11 0 -5 7 -6 16 -3 8 3 12 2 9 -4 -3 -6 -22
-10 -41 -10 -19 0 -34 -4 -34 -10 0 -5 -18 -10 -41 -10 -29 0 -38 -3 -33 -12
5 -8 0 -7 -11 2 -17 14 -18 13 -12 -2 5 -15 1 -18 -23 -18 -17 0 -30 -4 -30
-8 0 -4 -19 -9 -42 -10 -24 -2 -48 -9 -54 -17 -6 -8 -29 -16 -51 -17 -27 -2
-39 -7 -36 -15 3 -7 -2 -13 -12 -13 -9 0 -14 -4 -11 -8 2 -4 -5 -9 -17 -9 -17
-2 -19 0 -7 7 9 6 10 10 3 10 -6 0 -15 -4 -18 -10 -3 -5 -18 -10 -33 -10 -19
0 -23 -3 -14 -9 11 -7 10 -10 -3 -15 -9 -3 -26 -6 -36 -6 -11 0 -17 -4 -14
-10 3 -5 2 -10 -4 -10 -5 0 -12 6 -14 13 -4 10 -6 10 -6 0 -1 -7 -10 -13 -22
-13 -13 0 -18 -4 -13 -12 5 -9 2 -9 -9 1 -15 12 -17 11 -17 -3 0 -9 -8 -16
-19 -16 -11 0 -23 -4 -26 -10 -3 -5 -17 -10 -31 -10 -15 0 -24 -6 -24 -15 0
-8 -8 -15 -18 -15 -10 0 -24 -6 -31 -12 -11 -11 -12 -10 -6 2 7 12 6 13 -6 3
-8 -6 -25 -13 -39 -15 -14 -2 -24 -9 -23 -16 2 -6 -2 -12 -7 -12 -6 0 -10 5
-10 12 0 6 -9 1 -20 -12 -13 -15 -20 -18 -20 -9 0 10 -2 11 -8 2 -4 -7 -17
-14 -29 -16 -11 -1 -28 -11 -38 -20 -10 -10 -24 -16 -32 -13 -8 3 -11 1 -8 -4
6 -10 -15 -15 -44 -10 -13 1 -13 -1 -1 -15 7 -9 9 -15 4 -14 -26 5 -64 -2 -59
-11 4 -6 -7 -10 -24 -10 -33 0 -42 -16 -13 -23 9 -3 2 -5 -15 -6 -18 0 -34 0
-36 2 -2 1 -11 -6 -21 -15 -9 -9 -22 -16 -29 -14 -7 1 -9 1 -4 -1 4 -3 7 -9 7
-14 0 -5 -3 -8 -7 -8 -27 4 -63 -3 -58 -11 3 -5 -3 -10 -14 -10 -12 0 -21 -7
-21 -15 0 -9 -9 -15 -25 -15 -14 0 -25 -5 -25 -11 0 -5 -4 -7 -10 -4 -8 5 -13
-5 -12 -25 0 -3 -13 -6 -29 -7 -33 -2 -81 -31 -73 -44 3 -5 -1 -6 -9 -3 -8 3
-22 -2 -31 -11 -9 -9 -20 -13 -26 -10 -5 3 -10 -2 -10 -12 0 -15 -2 -16 -10
-3 -9 13 -14 7 -11 -12 0 -5 -10 -8 -24 -8 -14 0 -25 -4 -25 -10 0 -5 -7 -10
-15 -10 -8 0 -15 -7 -15 -15 0 -14 -11 -19 -37 -16 -7 1 -13 -3 -13 -8 0 -5
-10 -11 -22 -13 -13 -2 -22 -9 -21 -16 2 -6 -4 -12 -13 -12 -8 0 -12 -4 -9
-10 3 -6 -5 -10 -19 -10 -14 0 -28 -5 -32 -12 -5 -7 -3 -8 6 -3 9 5 11 4 6 -3
-4 -7 -16 -12 -27 -12 -10 0 -19 -4 -19 -10 0 -5 -11 -10 -25 -10 -14 0 -25
-5 -25 -11 0 -16 -26 -39 -49 -42 -11 -2 -24 -7 -28 -12 -5 -4 -3 -5 4 -1 6 3
14 3 17 -2 2 -4 -5 -9 -16 -9 -12 -1 -24 -7 -28 -13 -4 -7 -11 -12 -16 -12 -5
0 -8 -5 -6 -11 2 -6 -4 -4 -13 3 -13 11 -15 10 -9 -4 4 -10 1 -16 -9 -16 -8 0
-17 -7 -21 -15 -3 -8 -11 -14 -18 -13 -7 2 -12 -3 -11 -9 2 -8 -7 -13 -22 -13
-14 0 -25 -4 -25 -10 0 -5 -7 -10 -15 -10 -9 0 -12 -6 -9 -15 4 -10 0 -15 -15
-15 -12 0 -18 -5 -15 -13 4 -11 -6 -15 -53 -19 -7 -1 -12 -4 -11 -7 3 -28 -5
-41 -23 -41 -11 0 -17 -4 -14 -10 4 -6 -5 -10 -20 -10 -16 0 -24 -4 -20 -11 4
-6 -2 -13 -14 -16 -12 -3 -21 -9 -21 -14 0 -5 -7 -9 -15 -9 -9 0 -12 -6 -9
-15 6 -14 -11 -20 -38 -16 -5 0 -8 -4 -8 -9 0 -6 -7 -10 -15 -10 -18 0 -20
-16 -2 -23 6 -3 2 -6 -10 -6 -13 -1 -23 -5 -23 -11 0 -5 -7 -10 -15 -10 -8 0
-15 -7 -15 -15 0 -8 -7 -15 -16 -15 -8 0 -12 -4 -9 -10 3 -5 -3 -10 -15 -10
-11 0 -23 -7 -26 -15 -4 -8 -10 -15 -16 -15 -13 0 -38 -26 -38 -39 0 -6 -6
-11 -14 -11 -8 0 -16 -5 -18 -10 -2 -6 -13 -12 -25 -13 -12 0 -20 -4 -18 -7 8
-14 -27 -51 -42 -45 -14 5 -14 3 -2 -12 9 -10 9 -14 2 -9 -7 4 -20 -2 -30 -13
-9 -11 -21 -17 -27 -14 -6 3 -8 2 -3 -2 9 -10 -21 -45 -40 -45 -7 0 -13 -7
-13 -15 0 -14 -20 -20 -45 -15 -5 1 -7 -2 -3 -6 4 -4 0 -13 -10 -21 -10 -9
-11 -11 -2 -7 13 7 13 5 2 -8 -8 -9 -20 -14 -28 -11 -9 3 -14 0 -12 -8 2 -8
-3 -13 -9 -12 -12 3 -18 -17 -13 -42 1 -5 -4 -5 -11 2 -13 13 -30 1 -42 -31
-4 -10 -10 -16 -13 -13 -8 8 -34 -18 -34 -32 0 -6 -7 -11 -15 -11 -8 0 -15 -7
-15 -16 0 -9 -5 -12 -12 -8 -8 5 -9 2 -5 -9 4 -11 1 -17 -9 -17 -18 0 -44 -23
-44 -39 0 -6 -5 -11 -11 -11 -14 0 -39 -25 -39 -39 0 -6 -8 -11 -17 -11 -15 0
-16 -2 -3 -10 12 -8 11 -10 -7 -10 -16 0 -23 -6 -23 -20 0 -13 -5 -18 -15 -14
-11 4 -15 -1 -15 -17 0 -19 -2 -21 -10 -9 -8 13 -10 12 -11 -5 -1 -11 -1 -24
0 -29 1 -5 -5 -4 -13 4 -11 8 -16 9 -16 1 0 -6 -8 -11 -17 -12 -15 0 -15 -2 2
-9 11 -5 15 -9 9 -9 -5 -1 -19 -8 -30 -17 -10 -8 -12 -13 -4 -9 10 4 9 2 -2
-8 -10 -8 -14 -18 -10 -23 4 -4 0 -3 -8 3 -13 10 -16 8 -17 -8 -2 -21 -26 -49
-43 -49 -6 0 -10 -8 -8 -17 2 -10 -3 -17 -9 -16 -7 2 -13 -2 -13 -7 0 -6 -7
-10 -15 -10 -8 0 -15 -7 -15 -15 0 -8 -5 -15 -11 -15 -5 0 -7 -4 -4 -10 3 -5
-3 -10 -14 -10 -12 0 -21 -5 -21 -11 0 -5 4 -8 9 -4 5 3 13 1 16 -5 4 -6 3 -9
-2 -8 -4 1 -24 -8 -43 -21 -19 -13 -26 -20 -15 -17 16 5 14 2 -8 -17 -15 -14
-27 -29 -27 -36 0 -6 -6 -11 -13 -11 -16 0 -49 -55 -39 -64 4 -4 3 -7 -3 -6
-23 5 -34 -1 -29 -15 4 -9 0 -15 -10 -15 -8 0 -20 -9 -26 -20 -6 -11 -8 -20
-4 -20 4 0 -1 -9 -10 -19 -12 -13 -14 -21 -6 -26 7 -4 8 -11 1 -18 -11 -14
-14 -46 -12 -135 1 -48 4 -61 14 -56 7 5 6 0 -3 -11 -9 -11 -10 -16 -2 -11 8
5 12 1 12 -13 0 -28 11 -52 21 -45 5 3 9 -6 9 -20 0 -14 5 -26 10 -26 6 0 10
-11 10 -25 0 -14 -4 -25 -9 -25 -5 0 -11 -12 -13 -27 -2 -16 -8 -27 -15 -25
-7 1 -13 -5 -13 -14 0 -8 -5 -12 -10 -9 -9 5 -15 -24 -11 -48 1 -5 -3 -6 -9
-2 -6 3 -7 12 -4 18 4 7 3 8 -1 4 -8 -7 -15 -28 -17 -54 -1 -7 -5 -10 -10 -7
-4 3 -8 -6 -8 -20 0 -14 -5 -26 -11 -26 -5 0 -8 4 -4 9 3 5 1 13 -5 16 -6 4
-10 3 -9 -2 4 -24 -2 -53 -11 -48 -6 4 -10 -6 -11 -22 0 -15 -3 -22 -6 -15 -8
19 -19 14 -20 -10 -1 -13 -7 -24 -13 -26 -5 -2 -10 -11 -10 -19 0 -8 -6 -13
-13 -10 -8 3 -14 -3 -14 -16 -1 -11 -7 -23 -14 -27 -8 -6 -8 -9 2 -13 10 -4
10 -6 2 -6 -7 -1 -13 -8 -13 -17 0 -14 -3 -15 -17 -3 -10 7 -15 9 -11 5 4 -5
3 -15 -3 -23 -6 -7 -8 -13 -3 -13 5 0 3 -4 -4 -9 -7 -4 -14 -18 -15 -29 -1
-12 -7 -22 -14 -22 -12 0 -18 -13 -14 -34 1 -5 -3 -12 -9 -16 -6 -4 -12 -16
-13 -27 0 -13 -6 -19 -14 -16 -7 3 -13 -2 -13 -11 0 -9 -4 -16 -10 -16 -5 0
-10 -11 -10 -25 0 -14 -6 -25 -13 -25 -8 0 -20 -19 -27 -42 -7 -24 -18 -47
-23 -53 -7 -7 -8 -6 -3 3 4 6 2 12 -3 12 -6 0 -11 -9 -11 -20 0 -11 -4 -20
-10 -20 -5 0 -10 -11 -10 -24 0 -13 -11 -31 -25 -42 -23 -18 -36 -42 -15 -29
5 3 3 -7 -5 -21 -8 -15 -11 -32 -8 -37 3 -6 1 -7 -6 -3 -6 4 -9 12 -6 17 4 5
1 9 -4 9 -6 0 -11 -18 -11 -39 0 -22 -5 -41 -11 -43 -5 -2 -11 -10 -12 -18 -2
-8 -11 -25 -22 -37 -10 -12 -20 -32 -22 -44 -2 -11 -8 -29 -14 -38 -9 -14 -10
-14 -5 2 3 9 1 17 -4 17 -6 0 -10 -11 -10 -25 0 -16 -6 -25 -15 -25 -8 0 -15
-4 -15 -10 0 -5 8 -7 17 -4 17 5 17 5 1 -6 -10 -6 -18 -18 -18 -25 0 -8 -5
-15 -10 -15 -6 0 -9 -3 -9 -7 4 -24 -3 -43 -14 -43 -7 0 -14 -14 -15 -32 -2
-18 -7 -35 -13 -39 -5 -3 -11 -16 -12 -27 -1 -12 -7 -22 -14 -22 -8 0 -13 -13
-13 -33 0 -21 -9 -42 -23 -57 -22 -25 -23 -27 -26 -56 -1 -9 -6 -12 -14 -8 -7
5 -6 0 3 -11 9 -11 10 -16 3 -11 -9 5 -13 -1 -13 -19 0 -14 -7 -28 -15 -31 -8
-4 -15 -16 -15 -28 0 -12 -4 -26 -10 -32 -5 -5 -11 -22 -12 -36 -2 -21 -5 -25
-16 -16 -7 6 -12 7 -11 2 5 -28 -2 -74 -11 -69 -6 3 -10 -4 -10 -17 0 -13 -6
-30 -12 -37 -10 -11 -10 -13 0 -7 15 9 16 -20 0 -30 -7 -4 -8 -3 -4 4 4 7 2
12 -4 12 -6 0 -11 -10 -10 -22 4 -40 0 -59 -9 -54 -5 3 -9 -6 -10 -19 -3 -48
-4 -54 -15 -52 -6 1 -12 -10 -14 -25 -2 -16 -8 -28 -13 -28 -5 0 -8 -3 -8 -7
1 -5 1 -16 0 -27 -1 -16 -3 -17 -18 -5 -15 11 -14 10 1 -9 17 -20 15 -27 -7
-23 -4 1 -7 -4 -6 -11 4 -32 -2 -49 -13 -42 -10 6 -10 4 0 -8 9 -11 9 -17 2
-20 -6 -2 -11 -25 -12 -51 0 -33 -5 -47 -14 -47 -9 0 -14 -12 -14 -33 0 -18
-4 -37 -10 -43 -5 -5 -10 -25 -11 -45 -2 -22 -7 -35 -14 -33 -7 3 -12 -13 -14
-43 -1 -26 -6 -49 -12 -51 -5 -2 -9 -27 -9 -55 0 -35 -3 -47 -9 -38 -5 8 -7
21 -4 30 4 13 3 13 -6 -1 -6 -9 -12 -44 -13 -78 -1 -35 -5 -55 -10 -48 -4 8
-8 -11 -8 -44 0 -32 -5 -60 -12 -64 -6 -4 -8 -3 -4 4 3 6 2 13 -4 17 -6 4 -10
-16 -10 -54 0 -34 -4 -61 -8 -61 -5 0 -9 -23 -9 -52 -1 -29 -7 -54 -14 -59
-13 -8 -19 -28 -20 -69 -1 -14 -6 -31 -13 -39 -9 -12 -8 -13 4 -6 12 7 13 6 3
-6 -6 -8 -13 -39 -14 -70 -1 -30 -6 -64 -11 -74 -8 -18 -8 -18 -4 2 2 13 1 25
-3 28 -5 2 -9 -14 -9 -35 -3 -83 -4 -90 -16 -83 -6 3 -6 0 2 -8 6 -7 12 -17
12 -22 0 -4 -6 -5 -12 -1 -8 5 -7 0 2 -11 11 -13 11 -16 2 -11 -10 6 -13 1
-12 -20 4 -64 0 -115 -10 -109 -5 3 -10 1 -10 -4 0 -6 4 -11 8 -11 4 0 8 -9 9
-20 1 -11 -4 -20 -13 -20 -8 0 -14 -6 -14 -14 0 -10 -7 -13 -20 -11 -11 2 -18
0 -15 -6 4 -5 -1 -9 -9 -9 -8 0 -27 -11 -42 -25 -15 -14 -35 -25 -45 -25 -11
0 -19 -7 -19 -16 0 -8 -4 -13 -9 -10 -5 3 -11 -1 -15 -9 -3 -9 -19 -15 -41
-15 -20 0 -34 -4 -30 -9 3 -5 -4 -12 -15 -16 -11 -3 -20 -11 -20 -16 0 -5 -11
-9 -25 -9 -14 0 -25 -4 -25 -10 0 -5 8 -7 18 -4 14 5 15 4 2 -5 -8 -6 -23 -11
-32 -11 -10 0 -18 -6 -18 -12 0 -9 -4 -8 -10 2 -6 10 -10 11 -10 3 0 -7 -8
-13 -17 -14 -16 0 -15 -1 1 -8 18 -7 16 -9 -11 -19 -17 -5 -35 -7 -39 -4 -4 4
-4 1 0 -5 5 -9 -1 -13 -20 -13 -22 0 -25 -2 -14 -15 11 -13 8 -15 -14 -15 -15
0 -29 -7 -32 -15 -4 -8 -10 -12 -15 -9 -5 3 -9 -2 -9 -10 0 -9 -9 -16 -20 -16
-13 0 -24 -10 -30 -25 -5 -14 -12 -25 -16 -25 -3 0 -3 7 0 16 3 8 2 12 -4 9
-6 -3 -10 -16 -10 -28 0 -18 -2 -19 -10 -7 -10 15 -10 14 -14 -22 0 -7 -12
-15 -25 -16 -19 -3 -21 -6 -10 -13 10 -6 7 -9 -13 -9 -21 0 -28 -5 -28 -19 0
-10 -7 -24 -15 -31 -8 -7 -12 -17 -8 -23 3 -5 2 -7 -4 -4 -17 11 -53 -22 -46
-41 6 -15 5 -16 -12 -2 -10 8 -16 10 -12 3 4 -6 1 -17 -6 -25 -8 -7 -12 -18
-10 -24 2 -6 -4 -17 -14 -25 -14 -12 -16 -12 -8 0 5 10 4 12 -3 7 -7 -4 -12
-16 -12 -27 0 -10 -4 -19 -10 -19 -5 0 -10 -9 -10 -19 0 -11 -5 -23 -12 -27
-7 -5 -8 -3 -3 6 5 9 4 11 -3 6 -7 -4 -12 -16 -12 -27 0 -10 -5 -19 -11 -19
-5 0 -8 -4 -4 -9 3 -5 1 -12 -5 -16 -6 -4 -7 -11 -4 -17 4 -7 2 -8 -5 -4 -6 4
-9 12 -6 17 4 5 1 9 -5 9 -6 0 -10 -6 -9 -12 3 -29 -2 -59 -9 -54 -7 4 -11
-10 -14 -51 -1 -7 -7 -13 -15 -13 -7 0 -13 -8 -13 -18 0 -10 -3 -22 -7 -26 -8
-8 -9 -13 -12 -41 0 -8 -9 -15 -18 -16 -15 0 -15 -2 2 -9 17 -7 17 -9 3 -9
-14 -1 -18 -10 -18 -36 0 -19 -4 -35 -10 -35 -5 0 -10 -25 -10 -55 0 -30 -4
-55 -9 -55 -6 0 -8 10 -6 21 3 12 1 19 -2 15 -12 -12 -12 -40 0 -48 9 -6 9 -8
0 -8 -8 0 -13 -13 -13 -31 0 -21 -4 -28 -12 -23 -10 6 -10 5 -1 -7 9 -11 9
-19 2 -26 -8 -8 -8 -13 0 -17 6 -4 11 -12 11 -17 0 -6 -4 -7 -10 -4 -5 3 -10
1 -10 -4 0 -6 6 -11 13 -11 7 0 8 -3 2 -8 -5 -4 -11 -13 -13 -20 -7 -34 -2
-2286 5 -2291 4 -3 9 -37 11 -76 2 -47 8 -74 17 -81 9 -6 15 -28 15 -48 0 -27
3 -35 12 -30 8 5 7 0 -2 -11 -9 -11 -10 -16 -2 -11 8 5 12 -2 13 -26 1 -18 1
-37 0 -42 -1 -5 4 -4 12 2 12 10 14 9 14 -5 0 -41 4 -54 13 -48 6 4 10 -7 10
-24 0 -17 5 -31 11 -31 5 0 7 5 3 12 -4 7 -3 8 4 4 7 -4 12 -20 12 -37 0 -16
5 -29 10 -29 6 0 10 -12 10 -26 0 -23 2 -25 16 -14 8 8 14 9 13 4 -4 -23 2
-45 11 -39 5 3 10 -1 10 -9 0 -9 7 -16 15 -16 8 0 15 -9 15 -21 0 -11 5 -17
10 -14 9 5 15 -29 11 -60 -1 -5 5 -3 12 6 11 15 14 15 24 -7 8 -18 8 -22 0
-17 -7 3 -3 -3 7 -15 11 -12 27 -22 38 -22 10 0 18 -5 18 -11 0 -5 -5 -7 -12
-3 -7 4 -8 3 -4 -4 4 -7 13 -12 19 -12 14 0 47 -35 47 -50 0 -5 5 -12 12 -16
7 -4 8 -3 4 4 -4 7 -2 12 3 12 6 0 11 -8 11 -18 0 -11 10 -27 22 -38 12 -10
18 -13 14 -6 -7 11 -4 11 13 0 12 -7 21 -18 21 -25 0 -7 5 -13 11 -13 14 0 41
-27 37 -37 -2 -4 9 -9 25 -11 15 -2 27 -8 27 -13 0 -5 7 -9 15 -9 8 0 15 -5
15 -11 0 -20 29 -39 64 -41 32 -3 34 -5 19 -15 -15 -12 -13 -13 13 -13 22 0
26 -3 14 -10 -12 -8 -9 -10 13 -10 15 0 27 -5 27 -11 0 -5 -5 -7 -12 -3 -7 4
-8 3 -4 -4 4 -7 20 -12 37 -12 16 0 29 -4 29 -10 0 -5 11 -10 25 -10 16 0 25
-6 25 -15 0 -8 9 -15 21 -15 11 0 18 -3 15 -8 -4 -7 14 -10 81 -14 12 -1 19
-6 17 -10 -3 -5 -9 -6 -14 -3 -5 3 -12 1 -15 -5 -4 -6 -3 -10 2 -9 4 1 23 1
42 0 23 -1 32 -5 28 -14 -4 -10 5 -14 31 -15 20 -1 38 -6 40 -12 2 -5 26 -10
53 -10 29 0 49 -4 49 -11 0 -6 -7 -8 -17 -4 -13 4 -15 3 -8 -4 6 -6 33 -11 60
-12 28 -1 55 -5 60 -10 6 -4 32 -9 57 -10 26 -2 45 -6 42 -11 -3 -5 -11 -5
-17 -2 -7 4 -8 3 -4 -2 8 -8 25 -11 100 -13 19 -1 26 -5 21 -14 -6 -9 -4 -9 7
1 15 14 33 17 25 4 -6 -10 10 -11 220 -13 122 -1 158 2 165 13 7 11 9 11 9 -1
0 -11 3 -11 17 0 15 12 16 12 8 -1 -6 -12 -5 -13 6 -2 7 6 28 12 47 12 24 0
33 4 29 13 -3 8 1 14 8 14 7 0 11 -6 8 -14 -3 -7 -1 -13 5 -13 5 0 12 7 16 15
3 8 16 15 30 15 14 0 28 5 31 10 3 6 17 10 31 10 15 0 24 6 24 15 0 9 6 15 12
14 25 -3 39 1 34 10 -3 5 9 11 27 15 18 4 27 10 21 14 -7 5 -4 14 9 27 11 11
17 15 13 8 -3 -6 -1 -15 6 -19 7 -4 10 -4 6 1 -12 13 11 45 32 45 13 0 20 7
20 19 0 11 5 23 10 26 6 3 10 15 10 25 0 13 5 18 15 13 9 -3 15 -2 14 3 -4 24
2 55 10 50 11 -7 9 13 -2 32 -5 6 -4 12 1 12 12 0 10 330 -2 349 -5 8 -4 16 4
21 8 5 10 14 5 26 -12 27 -14 54 -4 48 13 -8 11 10 -4 25 -9 11 -9 13 1 7 15
-9 15 -1 2 24 -8 14 -7 25 2 40 10 16 10 24 0 41 -8 12 -9 18 -3 14 14 -8 14
1 1 25 -8 14 -7 25 2 40 10 16 10 24 0 41 -8 12 -9 18 -3 14 14 -8 14 1 0 26
-7 13 -7 25 -1 32 12 15 11 148 -1 140 -5 -3 -3 5 5 16 11 18 11 23 -2 31 -8
5 -10 10 -5 10 15 0 17 50 2 50 -8 0 -9 3 -1 8 13 8 14 133 1 125 -4 -3 -3 5
5 16 11 18 11 23 -2 31 -8 5 -10 10 -5 10 15 0 17 50 2 50 -7 0 -8 3 -2 8 14
10 19 46 5 37 -8 -5 -8 -1 1 13 7 12 9 27 4 38 -12 27 -14 55 -4 48 5 -3 9 -1
9 5 0 5 -4 13 -10 16 -10 6 -8 40 3 51 11 11 8 26 -3 19 -5 -3 -10 -2 -10 4 0
5 5 11 12 13 8 3 9 11 3 24 -12 27 -14 55 -4 48 13 -8 11 10 -3 25 -10 11 -10
13 0 7 16 -9 16 6 -1 23 -9 11 -9 13 1 7 16 -9 16 6 0 23 -10 11 -10 13 0 7
15 -9 15 -1 2 24 -7 14 -7 25 2 39 10 16 9 25 -1 45 -10 18 -11 29 -4 38 13
16 12 487 -1 507 -6 10 -6 12 2 7 15 -9 15 -1 1 26 -8 15 -8 19 0 14 14 -9 14
0 0 26 -8 15 -8 19 0 14 14 -9 14 0 0 26 -8 15 -8 19 0 14 14 -9 14 0 0 26 -8
15 -8 19 0 14 14 -9 14 0 0 26 -8 15 -8 19 0 14 14 -9 14 0 0 26 -8 15 -8 19
0 14 14 -9 14 0 0 26 -8 15 -8 19 0 14 14 -9 14 0 0 26 -8 15 -8 19 0 14 6 -4
11 -4 11 -1 0 4 -5 16 -11 27 -8 15 -8 19 0 14 14 -9 14 0 0 26 -8 15 -8 19 0
14 14 -9 14 0 0 26 -8 15 -8 19 0 14 14 -9 14 0 0 26 -8 15 -8 19 0 14 6 -4
11 -3 11 3 0 5 -5 13 -10 16 -6 3 -10 12 -10 18 0 7 4 6 10 -3 8 -13 10 -13
10 2 0 9 -4 20 -10 23 -5 3 -10 12 -10 18 0 7 4 6 10 -3 8 -13 10 -13 10 2 0
9 -4 20 -10 23 -5 3 -10 12 -10 18 0 7 4 6 10 -3 8 -13 10 -13 10 2 0 9 -5 20
-10 23 -6 3 -10 12 -10 18 0 9 3 8 8 -1 5 -7 8 66 8 162 -1 96 -4 178 -9 182
-4 4 -7 12 -7 18 0 6 5 4 10 -4 9 -13 10 -13 10 0 0 9 -5 21 -12 28 -8 8 -8
15 -1 24 6 7 10 58 11 113 0 234 6 356 15 362 6 3 7 1 3 -5 -3 -6 -2 -13 3
-16 11 -7 8 35 -4 54 -5 8 -4 11 3 7 9 -6 16 95 14 196 -1 9 3 15 7 13 4 -3 8
1 8 9 0 8 -5 11 -11 8 -6 -3 -5 0 2 8 6 7 12 17 12 22 0 4 -6 5 -12 1 -10 -6
-10 -4 -2 7 10 12 18 97 17 167 -1 12 3 22 9 22 5 0 7 -4 3 -9 -3 -5 -2 -12 3
-15 5 -3 9 12 9 32 1 68 7 107 18 114 6 5 6 8 -2 8 -7 0 -13 5 -13 11 0 5 4 8
8 5 4 -2 9 17 10 42 5 87 9 123 17 130 4 4 4 -3 1 -15 -4 -12 -3 -24 1 -26 5
-3 10 25 11 61 2 37 8 71 13 77 5 5 9 28 9 52 0 27 5 46 13 49 7 2 14 23 16
46 1 23 7 49 14 57 9 12 9 13 0 7 -7 -4 -13 -3 -13 3 0 5 4 11 9 13 6 2 11 25
12 52 2 28 8 50 16 53 7 3 13 17 13 32 0 15 5 32 12 39 9 9 9 12 -2 12 -11 0
-11 3 -3 8 6 4 13 21 15 37 2 17 8 29 16 27 8 -1 12 13 12 47 0 27 4 51 10 53
5 2 11 24 12 50 2 25 6 44 11 41 4 -2 5 -9 2 -14 -4 -5 -1 -9 4 -9 6 0 11 18
11 40 0 22 5 40 10 40 6 0 9 3 8 8 -5 18 13 73 22 67 6 -3 10 4 10 18 0 13 3
27 7 31 8 7 9 12 11 54 2 16 6 21 15 16 7 -5 6 0 -3 11 -14 17 -13 18 3 12 14
-5 17 -1 17 22 0 16 5 31 10 33 6 2 11 20 12 41 1 20 5 37 10 37 5 0 6 -5 2
-12 -4 -7 -3 -8 4 -4 7 4 12 20 12 36 0 16 4 32 10 35 5 3 10 19 10 36 0 19 5
29 15 29 10 0 15 10 15 28 0 15 5 34 11 42 9 13 10 12 5 -2 -3 -10 -1 -18 4
-18 9 0 15 37 11 69 -2 7 2 10 8 6 10 -5 16 22 12 48 0 4 6 7 14 7 9 0 15 9
15 25 0 14 5 25 10 25 6 0 10 11 10 25 0 16 6 25 15 25 8 0 15 4 15 10 0 5 -8
7 -17 3 -10 -3 -6 4 9 16 28 23 39 48 16 36 -7 -4 -4 1 6 9 11 9 16 16 12 16
-4 0 0 7 8 16 9 8 16 22 16 30 0 8 6 14 13 14 8 0 7 4 -3 10 -8 5 -10 10 -4
10 7 0 14 9 17 21 4 14 10 18 18 13 9 -5 10 -2 6 9 -3 9 0 23 8 30 11 11 11
17 2 27 -9 10 -9 11 1 6 8 -5 12 2 13 21 1 17 3 21 6 10 6 -24 23 -11 23 19 0
13 5 24 10 24 6 0 10 11 10 25 0 16 6 25 15 25 8 0 15 9 15 21 0 11 4 18 8 15
7 -4 11 9 14 51 1 10 4 10 17 0 8 -7 12 -7 8 -1 -3 6 0 20 8 30 8 10 15 29 15
42 0 13 6 22 15 22 8 0 15 7 15 16 0 9 5 12 13 8 7 -5 7 -2 -2 10 -8 9 -10 16
-4 14 6 -2 12 2 13 7 1 6 8 14 16 18 8 4 14 15 14 24 0 9 10 24 22 35 12 10
23 28 25 39 3 23 26 49 42 49 6 0 11 11 11 25 0 14 5 25 10 25 6 0 10 11 10
25 0 14 5 25 11 25 5 0 7 -5 3 -12 -4 -7 -3 -8 4 -4 7 4 12 16 12 27 0 10 5
19 11 19 5 0 8 4 5 9 -9 14 4 41 20 41 8 0 14 5 14 11 0 14 25 39 39 39 6 0
11 11 11 25 0 14 4 25 9 25 5 0 11 9 14 21 3 12 10 18 16 14 6 -3 11 1 11 9 0
9 5 16 10 16 6 0 10 15 11 33 0 17 3 26 6 20 2 -7 9 -13 15 -13 6 0 8 7 4 15
-3 10 1 15 12 15 13 0 14 2 4 9 -11 7 -10 9 3 15 9 3 13 10 10 16 -3 6 1 7 9
4 10 -4 16 -1 16 9 0 8 7 18 16 21 9 3 12 11 8 18 -5 8 -2 9 9 5 11 -4 17 -1
17 9 0 8 5 12 10 9 6 -4 10 -3 9 2 -5 27 3 53 16 53 8 0 15 7 15 15 0 8 5 15
10 15 6 0 10 8 10 18 0 14 2 15 10 2 8 -13 11 -11 16 8 4 12 12 22 19 22 7 0
20 16 29 35 9 19 21 35 26 35 6 0 10 7 10 15 0 8 4 15 9 15 5 0 11 10 13 22 2
13 12 24 26 28 13 3 23 10 23 15 -1 6 5 10 12 10 6 0 14 11 15 24 3 19 6 21
13 10 7 -11 9 -10 10 6 1 11 1 24 0 28 -1 5 2 6 6 4 11 -7 38 14 46 36 3 9 14
17 22 17 9 0 14 3 12 8 -6 9 49 63 57 55 3 -4 6 3 6 15 0 12 5 22 11 22 14 0
39 26 39 40 0 7 7 10 15 6 9 -3 15 0 15 9 0 8 5 15 10 15 6 0 10 7 10 15 0 8
6 15 13 15 8 0 19 11 27 24 7 13 22 27 33 30 12 3 18 8 15 12 -8 8 16 34 31
34 6 0 11 5 11 11 0 15 26 39 44 39 8 0 18 5 22 12 4 7 3 8 -4 4 -7 -4 -12 -2
-12 3 0 6 7 11 16 11 9 0 12 5 8 12 -4 6 -3 8 4 4 6 -3 13 -2 17 4 4 6 12 7
18 3 7 -4 6 0 -2 10 -12 15 -11 17 3 17 11 0 14 4 10 13 -5 7 0 6 11 -3 10 -8
16 -10 12 -4 -4 7 0 14 8 18 8 3 15 13 15 22 0 10 5 14 16 10 8 -3 12 -2 9 4
-3 6 1 10 9 10 9 0 16 9 16 20 0 14 5 18 17 13 11 -4 14 -3 9 5 -7 12 11 17
43 13 7 -2 10 2 6 8 -6 11 17 41 32 41 5 0 16 9 25 19 12 14 13 21 5 25 -7 4
1 4 16 2 19 -2 27 0 23 9 -5 13 19 37 48 48 9 4 14 11 11 17 -6 10 7 14 33 11
6 -1 12 3 12 9 0 5 7 10 15 10 8 0 15 6 15 13 0 16 54 49 66 39 4 -4 3 0 -3 8
-8 11 -8 18 3 28 8 7 14 9 14 4 0 -5 7 -9 15 -9 8 0 12 4 9 9 -5 7 17 12 38 9
4 0 5 6 2 14 -4 10 0 15 11 15 9 0 13 5 10 10 -3 6 3 10 14 10 12 0 21 7 21
15 0 8 7 15 16 15 8 0 12 4 9 10 -3 6 1 7 9 4 9 -3 16 -1 16 6 0 6 5 8 10 5 6
-3 10 1 10 9 0 9 7 16 15 16 8 0 15 6 15 13 0 8 4 7 10 -3 8 -13 10 -13 10 2
0 12 6 16 18 12 14 -5 14 -3 -3 11 -14 12 -16 16 -5 15 34 -5 51 0 44 13 -5 7
-2 7 10 -2 15 -12 17 -12 14 0 -2 8 3 13 11 11 12 -3 12 -1 0 14 -8 10 -9 15
-3 11 6 -3 20 0 30 8 10 8 29 15 41 15 13 0 22 6 20 12 -1 7 9 14 22 16 19 3
21 6 10 13 -11 7 -9 9 8 9 12 0 26 8 32 18 5 9 12 16 15 15 3 -2 14 -3 24 -3
14 0 15 2 2 10 -12 8 -9 10 12 10 18 0 26 4 23 13 -3 6 6 17 20 24 14 6 23 7
19 2 -12 -21 13 -7 30 16 10 14 27 25 37 25 11 0 19 7 19 15 0 9 9 15 25 15
14 0 25 5 25 11 0 8 5 7 16 -1 12 -11 15 -11 12 1 -2 8 3 13 11 11 8 -2 11 3
8 13 -5 10 0 15 13 15 11 0 20 5 20 10 0 6 11 10 25 10 14 0 25 6 25 13 0 7
10 14 22 14 13 1 24 7 26 13 2 5 15 10 29 10 18 0 24 4 19 15 -4 12 3 15 30
15 21 0 33 4 29 10 -4 6 5 10 20 10 15 0 24 4 20 10 -4 6 7 13 24 16 18 4 28
11 24 17 -4 6 2 8 16 4 15 -4 26 1 34 14 6 10 22 19 34 19 13 0 23 5 23 10 0
6 11 10 25 10 16 0 25 6 25 16 0 8 5 12 10 9 6 -4 7 -11 4 -17 -4 -7 -2 -8 5
-4 6 4 9 12 6 17 -4 5 3 9 13 9 31 0 69 24 64 40 -2 9 2 6 11 -5 13 -17 18
-18 29 -6 9 10 9 12 1 7 -7 -4 -13 -2 -13 3 0 6 14 11 31 11 17 0 28 4 24 10
-5 8 31 15 58 11 12 -2 8 17 -5 22 -7 3 1 6 19 6 17 1 35 6 38 11 5 8 12 7 23
-2 12 -10 14 -10 8 0 -6 11 17 18 46 13 4 0 5 6 2 14 -6 14 18 21 49 16 4 0 7
3 7 9 0 5 16 10 36 10 25 0 35 4 31 13 -3 8 5 14 21 15 14 1 29 7 33 13 5 8 8
8 13 0 4 -6 13 -11 19 -11 7 0 6 4 -3 10 -12 8 -11 10 8 10 12 0 25 -1 28 -2
3 -2 10 5 15 15 7 11 22 17 45 17 22 0 33 4 29 11 -4 6 -1 10 6 8 41 -5 81 2
76 14 -5 12 16 18 80 21 11 1 19 5 16 9 -3 5 1 8 8 6 39 -5 69 2 69 16 0 14
18 18 82 18 10 0 15 4 12 8 -3 5 13 9 35 9 31 0 41 4 41 16 0 10 8 15 23 14
12 -1 36 -2 52 -1 23 1 27 3 15 11 -13 9 -13 10 0 10 9 0 22 -6 29 -12 11 -10
13 -10 7 0 -5 9 6 12 46 13 29 0 47 3 41 6 -14 5 -18 24 -5 22 32 -5 102 3 97
11 -3 6 -1 10 4 10 6 0 11 -6 11 -12 0 -10 2 -10 8 -1 4 7 37 13 79 15 39 1
70 5 67 9 -2 3 -15 5 -29 4 -14 -2 -23 0 -21 4 3 4 42 8 88 9 45 2 85 7 88 12
3 5 43 10 88 11 66 1 80 4 71 15 -8 10 -5 13 13 11 13 0 26 -6 30 -12 5 -6 8
-6 8 3 0 8 16 12 48 12 26 0 53 5 60 12 9 9 15 9 24 0 16 -16 31 -15 22 1 -5
7 0 6 11 -3 10 -8 16 -10 12 -4 -6 11 27 14 186 17 29 1 46 6 43 12 -4 12 10
13 279 16 99 1 190 5 203 10 13 5 21 5 18 1 -3 -5 8 -9 24 -9 18 0 27 4 23 11
-4 6 1 5 10 -3 14 -11 17 -11 17 0 0 10 3 10 8 3 5 -8 76 -12 222 -14 285 -3
338 -5 347 -15 5 -4 0 -5 -9 -2 -10 4 -18 2 -18 -3 0 -6 38 -11 85 -11 98 -2
95 -1 114 -13 10 -6 12 -5 7 2 -4 7 -2 12 3 12 6 0 11 -4 11 -9 0 -8 77 -14
140 -12 18 1 21 -2 11 -8 -9 -6 -5 -8 14 -8 19 0 23 2 14 8 -10 6 -8 8 8 7 11
-1 19 -7 17 -13 -3 -6 7 -12 21 -13 18 -1 24 2 19 11 -5 9 -4 9 7 0 7 -7 34
-13 60 -13 26 0 50 -4 53 -8 3 -5 27 -10 53 -11 26 -1 52 -6 57 -11 6 -6 15
-10 21 -10 5 0 3 5 -5 10 -11 8 -8 9 14 6 16 -3 31 -8 35 -12 3 -4 -2 -4 -11
-1 -10 4 -18 2 -18 -3 0 -6 30 -10 66 -10 49 0 63 -3 58 -12 -5 -9 -2 -9 9 1
11 9 17 10 17 2 0 -6 16 -11 35 -11 21 0 38 -6 45 -17 11 -17 11 -17 6 0 -3 9
-1 17 4 17 6 0 10 -7 10 -15 0 -11 12 -15 43 -16 23 -1 45 -1 50 0 4 0 7 -3 7
-9 0 -6 3 -9 8 -9 37 6 92 -3 92 -15 0 -14 25 -20 118 -32 23 -4 42 -10 42
-16 0 -5 -6 -6 -12 -2 -7 4 -9 3 -5 -1 9 -10 28 -14 77 -16 19 -1 40 -6 47
-11 6 -5 26 -10 43 -10 18 -1 34 -7 37 -15 3 -7 16 -13 30 -13 13 0 22 -4 19
-8 -3 -5 1 -9 9 -9 8 0 12 4 9 9 -3 4 -1 8 5 8 5 0 11 -4 13 -10 2 -5 18 -10
36 -12 32 -2 42 -13 20 -21 -7 -2 2 -4 20 -5 18 0 41 -7 50 -14 13 -11 15 -11
7 2 -7 12 -6 13 6 4 8 -6 27 -14 42 -18 15 -4 25 -11 22 -16 -4 -6 7 -10 25
-10 18 0 29 -4 25 -10 -4 -6 8 -10 30 -10 22 0 34 -4 30 -10 -3 -5 -1 -11 4
-11 6 -1 16 -3 21 -4 6 -1 22 -3 36 -4 15 -1 23 -5 19 -12 -4 -6 -1 -10 6 -8
31 4 49 -2 49 -16 0 -8 3 -14 8 -14 26 4 62 -3 57 -11 -6 -9 20 -14 55 -11 12
1 11 -1 -2 -12 -16 -13 -15 -14 13 -15 17 0 38 -7 47 -14 9 -8 13 -8 9 -1 -5
8 -1 8 17 0 13 -7 22 -15 20 -19 -2 -3 1 -10 7 -14 7 -4 9 -3 5 4 -3 6 -2 13
4 17 5 3 10 -1 10 -9 0 -14 18 -21 43 -17 4 0 7 -4 7 -9 0 -6 11 -10 24 -10
28 0 43 -16 24 -23 -7 -3 1 -6 17 -7 17 0 38 -7 48 -15 11 -7 25 -11 33 -8 10
4 12 0 8 -11 -4 -9 -3 -16 2 -15 23 4 45 -2 39 -11 -4 -6 5 -10 20 -10 14 0
28 -7 31 -15 4 -8 17 -15 30 -15 13 0 24 -4 24 -10 0 -5 11 -10 25 -10 14 0
25 -6 25 -13 0 -13 47 -37 79 -40 23 -1 28 -13 9 -20 -8 -3 -5 -6 5 -6 12 -1
16 -5 11 -13 -5 -9 -2 -9 9 1 11 9 17 10 17 2 0 -6 11 -11 25 -11 16 0 25 -6
25 -15 0 -8 7 -15 16 -15 11 0 14 -6 10 -17 -5 -15 -4 -15 9 1 13 17 15 18 15
3 0 -11 8 -17 23 -17 18 0 19 -2 7 -10 -12 -7 -8 -10 15 -10 17 0 37 -5 45
-11 13 -9 12 -10 -2 -5 -10 3 -18 1 -18 -4 0 -6 12 -10 28 -10 21 0 24 -2 12
-10 -11 -7 -7 -10 17 -10 27 0 31 -3 26 -17 -3 -10 -3 -15 2 -11 4 4 14 3 22
-3 7 -6 13 -8 13 -5 0 4 7 1 15 -8 8 -8 15 -19 15 -25 0 -6 12 -11 26 -11 14
0 23 -4 19 -10 -3 -5 3 -10 14 -10 12 0 21 -7 21 -15 0 -8 8 -15 18 -15 10 0
29 -11 42 -25 12 -13 26 -22 31 -20 4 3 14 -2 22 -10 9 -8 21 -15 27 -15 7 0
9 -7 6 -15 -3 -10 -1 -15 7 -14 20 4 67 -23 67 -38 0 -11 20 -18 43 -14 5 1 6
-2 3 -7 -2 -4 -1 -14 4 -22 9 -15 13 -16 46 -19 9 -1 12 -6 8 -13 -5 -8 0 -7
11 2 11 9 16 10 11 3 -4 -7 -2 -13 3 -13 6 0 10 -6 8 -12 -1 -7 8 -14 21 -16
12 -2 20 -8 17 -13 -4 -5 3 -9 14 -9 12 0 21 -7 21 -16 0 -8 5 -12 10 -9 6 3
10 -1 10 -9 0 -10 9 -16 24 -16 16 0 26 -7 29 -22 4 -12 9 -19 13 -16 8 8 34
-16 34 -31 0 -6 5 -11 11 -11 6 0 17 -6 25 -14 8 -8 14 -19 14 -25 0 -6 9 -11
19 -11 20 0 36 -16 36 -35 0 -5 10 -11 23 -13 12 -2 22 -8 22 -13 0 -5 7 -9
15 -9 8 0 15 -7 15 -15 0 -8 7 -15 16 -15 8 0 13 -4 10 -9 -3 -5 6 -12 21 -16
17 -4 22 -9 15 -14 -7 -4 -5 -11 9 -20 17 -10 20 -10 13 1 -4 7 2 4 14 -6 24
-21 29 -32 10 -20 -7 4 -8 3 -4 -4 4 -7 16 -12 27 -12 11 0 19 -7 19 -16 0 -9
5 -12 12 -8 8 5 9 2 5 -9 -3 -10 -2 -17 3 -17 24 0 51 -20 43 -33 -2 -4 4 -10
14 -14 23 -9 37 -23 46 -47 4 -10 10 -16 13 -13 8 8 34 -18 34 -32 0 -6 7 -11
15 -11 8 0 15 -7 15 -15 0 -8 5 -15 11 -15 5 0 7 -4 4 -10 -3 -5 4 -10 15 -10
16 0 20 -5 16 -15 -3 -9 0 -15 9 -15 8 0 15 -4 15 -10 0 -5 7 -10 15 -10 8 0
15 -5 15 -11 0 -6 7 -17 15 -26 8 -8 12 -20 8 -26 -4 -7 2 -5 12 3 17 14 18
13 12 -2 -4 -12 -2 -18 7 -18 8 0 17 -7 20 -16 3 -8 10 -12 16 -9 5 3 10 -1
10 -10 0 -22 27 -48 42 -40 7 4 4 -1 -7 -10 l-20 -17 20 4 c12 2 19 -2 17 -10
-1 -6 4 -11 10 -10 7 2 12 -5 10 -14 -2 -12 2 -16 13 -12 10 4 15 0 15 -11 0
-9 5 -13 10 -10 6 3 10 1 10 -4 0 -6 5 -10 12 -9 7 2 12 -3 13 -10 0 -8 8 -19
18 -26 9 -7 17 -18 17 -25 0 -6 5 -11 10 -11 6 0 10 -7 10 -15 0 -9 6 -12 18
-8 14 5 13 3 -3 -10 -20 -16 -20 -16 3 -17 13 0 20 -4 17 -10 -3 -5 1 -10 9
-10 10 0 13 -6 9 -17 -5 -12 -2 -15 10 -10 11 4 17 1 17 -8 0 -8 5 -15 10 -15
6 0 10 -9 10 -20 0 -13 5 -18 15 -14 14 6 20 -11 16 -38 0 -5 4 -8 10 -8 5 0
7 -4 4 -10 -6 -9 8 -14 28 -11 4 0 7 -6 7 -14 0 -8 5 -15 10 -15 6 0 10 -7 10
-16 0 -9 6 -14 13 -11 8 3 14 -3 14 -16 1 -11 6 -23 11 -26 5 -3 11 -14 15
-24 4 -10 11 -15 17 -12 5 3 10 -1 10 -10 0 -10 5 -13 13 -9 7 5 6 0 -3 -11
-9 -11 -10 -16 -2 -11 7 4 12 1 12 -9 0 -9 5 -13 11 -10 6 4 13 -2 16 -14 3
-12 10 -21 16 -21 6 0 7 -3 4 -7 -4 -3 1 -12 11 -20 9 -8 11 -12 5 -8 -7 3
-13 1 -13 -4 0 -6 5 -11 11 -11 11 0 39 -25 39 -35 0 -3 12 -17 28 -31 15 -14
20 -22 12 -18 -12 6 -13 4 -2 -7 6 -7 12 -21 12 -30 0 -10 5 -21 12 -25 7 -4
8 -3 4 4 -4 7 -2 12 3 12 6 0 11 -11 11 -25 0 -14 5 -25 10 -25 6 0 9 -3 9 -7
-4 -28 2 -45 16 -39 9 3 15 0 15 -9 0 -8 5 -15 10 -15 6 0 10 -12 10 -26 0
-22 3 -24 14 -15 11 9 14 9 13 -1 -1 -33 4 -49 13 -43 6 4 10 3 9 -2 -4 -24 3
-43 16 -43 8 0 15 -8 15 -17 1 -22 23 -53 39 -53 6 0 11 -11 11 -25 0 -14 5
-25 10 -25 6 0 10 -5 10 -11 0 -5 -4 -7 -10 -4 -5 3 -10 4 -10 0 0 -3 11 -10
25 -15 15 -6 25 -17 25 -29 0 -11 5 -23 10 -26 6 -3 10 -15 10 -26 0 -10 7
-19 15 -19 9 0 15 -10 15 -26 0 -14 4 -23 10 -19 6 4 10 -7 10 -24 0 -22 5
-31 17 -31 9 0 14 -3 10 -6 -3 -3 3 -20 13 -36 10 -17 16 -38 12 -46 -4 -11
-1 -14 11 -9 13 5 17 1 17 -18 0 -13 5 -27 10 -30 6 -3 10 -17 10 -31 0 -15 6
-24 15 -24 10 0 15 -10 15 -32 0 -25 3 -29 10 -18 7 11 10 7 10 -17 0 -23 5
-33 15 -33 10 0 15 -10 15 -30 0 -20 4 -28 13 -24 8 3 13 -4 14 -17 1 -12 6
-25 10 -28 11 -8 15 -29 15 -71 1 -19 3 -26 5 -15 11 47 21 36 23 -28 1 -9 5
-15 11 -12 5 4 9 -8 9 -24 0 -21 5 -31 15 -31 10 0 15 -10 15 -28 0 -15 4 -32
10 -38 5 -5 10 -24 12 -43 1 -18 8 -36 15 -38 7 -3 13 -16 13 -28 0 -13 5 -25
11 -27 5 -2 11 -19 11 -38 1 -19 3 -29 5 -22 8 22 19 12 21 -20 2 -18 7 -34
12 -36 6 -2 10 -8 10 -13 0 -6 -6 -7 -12 -3 -10 6 -10 4 0 -7 6 -7 12 -23 12
-36 0 -14 6 -23 15 -23 10 0 15 -11 15 -35 0 -19 5 -35 10 -35 6 0 10 -5 10
-11 0 -5 -6 -7 -12 -3 -10 6 -10 4 0 -7 6 -7 12 -23 12 -36 0 -13 4 -23 10
-23 5 0 7 8 3 18 -3 9 -3 14 1 10 5 -4 10 -24 13 -45 3 -21 9 -42 14 -47 13
-15 11 -28 -3 -20 -10 6 -10 4 0 -7 6 -7 12 -26 12 -41 0 -16 7 -31 15 -34 10
-4 15 -20 15 -45 0 -21 5 -39 10 -39 6 0 9 -3 9 -7 -1 -5 -1 -23 0 -42 1 -27
4 -32 19 -27 14 5 14 4 -2 -9 -17 -13 -18 -15 -3 -15 13 0 17 -9 17 -46 0 -25
4 -43 8 -40 5 3 9 -7 9 -22 2 -67 8 -92 22 -92 11 0 10 -4 -5 -15 -16 -13 -16
-14 -1 -9 14 5 17 0 17 -35 0 -24 5 -41 11 -41 8 0 7 -6 -2 -17 -10 -11 -10
-14 -1 -9 12 7 13 -5 14 -106 1 -15 4 -25 9 -22 4 2 6 12 3 22 -5 15 -4 14 6
-1 10 -15 8 -23 -7 -40 -16 -19 -16 -20 0 -8 16 12 17 10 17 -28 0 -31 3 -40
13 -35 8 5 7 2 -2 -9 -11 -14 -12 -23 -3 -40 7 -12 13 -54 14 -93 2 -52 6 -70
16 -67 18 7 15 -8 -5 -23 -17 -13 -17 -14 0 -8 12 4 17 1 17 -11 0 -10 -5 -13
-12 -9 -6 4 -8 3 -4 -4 3 -5 3 -12 -1 -15 -5 -2 -2 -2 5 -1 8 2 12 -11 12 -41
0 -29 4 -45 13 -45 8 0 7 -4 -3 -11 -11 -8 -12 -12 -2 -16 6 -2 12 -11 12 -19
0 -9 -4 -12 -10 -9 -5 3 -10 1 -10 -4 0 -6 5 -11 10 -11 6 0 10 -40 10 -101 0
-95 1 -101 18 -88 16 13 16 12 2 -5 -18 -23 -22 -49 -6 -43 15 6 16 -30 2 -52
-6 -10 -5 -12 2 -7 11 7 16 -123 14 -354 -1 -40 3 -67 11 -72 9 -6 9 -8 0 -8
-16 0 -19 -525 -3 -535 5 -3 10 -12 10 -18 0 -7 -4 -6 -10 3 -9 13 -10 13 -10
0 0 -9 6 -22 13 -29 8 -9 8 -12 0 -7 -15 8 -14 -136 1 -146 7 -5 7 -8 1 -8
-13 0 -14 -119 -1 -139 6 -9 5 -12 -1 -8 -6 4 -10 -8 -11 -28 -1 -22 3 -35 11
-35 7 0 8 -3 2 -8 -16 -11 -18 -44 -3 -53 10 -7 10 -9 1 -9 -10 0 -13 -59 -13
-261 0 -194 3 -258 12 -253 7 5 8 3 2 -7 -15 -24 -16 -62 -2 -70 8 -6 9 -9 2
-9 -15 0 -15 -142 0 -152 8 -6 8 -8 0 -8 -8 0 -12 -30 -12 -90 0 -60 4 -88 11
-83 6 4 7 1 1 -8 -5 -8 -10 -25 -12 -37 -2 -17 1 -22 10 -16 10 6 10 5 2 -7
-17 -20 -17 -622 -1 -612 9 5 9 3 1 -8 -16 -22 -18 -157 -2 -176 9 -12 9 -15
1 -9 -10 5 -13 -10 -13 -66 0 -45 5 -79 13 -87 10 -11 9 -12 -1 -7 -10 6 -12
-25 -11 -153 0 -103 4 -159 11 -155 5 3 4 -3 -3 -14 -10 -17 -10 -23 0 -36 10
-12 11 -19 2 -30 -8 -10 -8 -20 3 -41 8 -16 13 -32 10 -37 -3 -4 2 -5 11 -2
11 5 15 2 14 -7 -5 -21 24 -79 38 -79 7 0 13 -4 13 -10 0 -5 7 -10 16 -10 8 0
13 -4 9 -9 -3 -5 0 -13 6 -17 7 -4 9 -3 5 4 -3 6 -2 13 4 17 6 4 10 -5 10 -22
0 -22 2 -25 10 -13 8 13 10 12 10 -2 0 -10 7 -18 15 -18 8 0 15 -4 15 -10 0
-5 15 -10 33 -10 24 0 28 -3 17 -10 -8 -5 -13 -10 -10 -11 45 -8 56 -11 64
-19 6 -6 21 -10 36 -10 14 0 32 -5 40 -11 12 -9 11 -10 -8 -6 -12 3 -20 2 -17
-3 5 -7 46 -12 103 -11 13 1 21 -3 18 -7 -3 -5 36 -10 87 -11 51 -1 99 -3 107
-3 8 -1 59 0 113 0 76 2 96 5 91 15 -5 7 0 6 11 -3 11 -9 16 -10 11 -2 -4 6
-2 12 3 12 6 0 11 -6 11 -12 0 -8 3 -9 8 -3 4 6 23 12 42 14 70 6 92 10 99 17
3 4 -2 4 -11 1 -10 -4 -18 -2 -18 3 0 6 25 10 56 10 35 0 53 4 49 10 -4 6 -3
10 2 9 4 -1 27 -1 51 0 30 1 42 5 42 16 0 11 12 15 46 15 33 0 43 3 38 13 -5
7 0 6 11 -3 11 -9 16 -10 11 -2 -5 9 3 12 28 12 22 0 35 4 33 12 -2 12 61 30
78 21 5 -2 1 3 -10 12 -20 16 -20 16 0 14 37 -4 66 1 61 10 -3 4 2 8 12 8 33
0 42 3 42 14 0 5 -5 7 -12 3 -7 -4 -8 -3 -4 4 4 7 20 12 37 12 16 0 29 5 29
10 0 6 11 10 25 10 16 0 25 6 25 15 0 8 5 15 11 15 5 0 8 -4 4 -9 -3 -5 -1
-13 5 -16 6 -4 10 -3 9 2 -4 22 2 44 10 38 5 -3 12 -1 16 5 4 6 11 7 17 4 7
-5 9 -2 6 7 -4 9 4 19 18 26 13 6 22 7 18 2 -8 -14 6 -10 22 6 9 8 12 20 9 26
-4 6 -1 10 6 8 27 -3 40 1 34 11 -4 6 6 10 24 10 23 0 29 4 25 15 -6 14 6 20
29 16 5 -1 6 3 2 9 -3 5 1 10 9 10 10 0 13 6 9 17 -4 10 -2 14 4 10 6 -4 13 0
17 8 3 8 16 15 28 16 13 0 17 3 11 6 -7 2 -13 9 -13 14 0 6 5 7 10 4 6 -3 10
2 10 12 0 11 3 14 8 7 5 -7 14 -5 27 9 11 11 14 17 7 12 -11 -6 -11 -3 -1 13
11 17 16 19 28 9 12 -9 13 -9 7 1 -4 6 -2 12 4 12 6 0 15 12 21 27 8 22 12 24
19 13 8 -12 10 -11 11 5 1 11 0 24 -1 30 -1 5 1 7 5 3 7 -7 45 27 45 40 0 12
30 72 36 72 3 0 2 -6 -2 -12 -4 -7 3 -3 15 9 11 12 21 31 21 42 0 14 5 19 15
15 14 -6 21 18 16 49 -1 5 3 6 9 2 6 -4 10 5 10 21 0 20 3 24 13 16 10 -8 13
-5 15 16 1 15 7 29 12 30 6 2 10 14 10 27 0 12 7 25 15 29 9 3 15 19 15 41 0
22 4 34 10 30 6 -3 10 -1 10 4 0 6 -5 11 -11 11 -6 0 -4 7 5 15 8 9 13 22 10
30 -4 9 0 15 7 15 11 0 11 3 -1 10 -13 8 -13 10 2 10 9 0 17 8 17 18 0 84 4
114 11 101 7 -10 9 -8 7 8 0 12 -5 19 -9 17 -4 -3 -8 0 -8 5 0 6 4 11 8 11 11
0 10 -118 10 1160 0 1287 2 1170 -11 1170 -6 0 -6 5 0 13 12 15 13 48 1 41 -7
-5 -11 28 -11 89 0 20 -13 23 -21 5 -4 -9 -5 -8 -5 2 4 60 -2 101 -13 94 -8
-5 -7 0 2 11 9 11 10 16 3 11 -10 -5 -13 3 -14 31 -1 21 -1 43 0 48 1 6 -5 2
-12 -7 -13 -16 -14 -15 -16 15 -2 17 -3 40 -4 49 -1 9 -5 14 -9 12 -4 -3 -8 6
-8 20 0 18 -4 24 -15 20 -11 -5 -15 1 -15 19 0 14 -5 27 -10 29 -6 2 -11 20
-12 40 -1 34 -3 36 -15 20 -14 -16 -14 -16 -9 0 3 10 -1 23 -7 30 -7 7 -16 21
-20 31 -4 10 -10 16 -15 13 -4 -2 -9 5 -9 17 -1 12 -7 23 -13 25 -5 2 -10 12
-10 22 0 10 -5 22 -12 26 -7 5 -9 2 -4 -7 4 -8 1 -6 -7 3 -8 10 -18 14 -23 10
-4 -4 -2 2 6 12 10 13 10 17 3 12 -9 -5 -13 0 -13 14 0 11 -7 23 -15 26 -8 4
-15 14 -15 23 0 14 -2 14 -10 1 -8 -12 -10 -9 -10 13 0 15 -5 27 -11 27 -5 0
-8 -4 -4 -9 3 -5 2 -12 -3 -15 -4 -2 -9 5 -9 17 -1 12 -7 23 -13 25 -5 2 -10
10 -10 18 0 8 -5 14 -11 14 -6 0 -17 7 -25 15 -8 8 -22 11 -32 8 -14 -5 -13
-2 3 11 17 15 17 17 3 12 -11 -3 -18 0 -18 8 0 8 -7 17 -16 20 -8 3 -13 10
-10 15 3 5 -2 8 -12 7 -9 0 -16 4 -15 9 1 10 -11 14 -54 17 -10 1 -10 5 -1 15
6 8 7 13 2 12 -25 -4 -44 3 -44 16 0 8 -6 14 -12 13 -7 -2 -12 3 -10 10 1 7
-8 12 -23 12 -14 0 -25 5 -25 10 0 6 -7 10 -15 10 -8 0 -15 7 -15 15 0 8 -7
15 -16 15 -9 0 -12 5 -8 13 5 7 0 6 -11 -3 -11 -9 -16 -10 -11 -2 5 8 1 12
-13 12 -11 0 -26 9 -34 20 -8 11 -17 17 -20 13 -4 -3 -7 -1 -7 5 0 7 -9 12
-20 12 -11 0 -23 7 -26 15 -4 8 -12 15 -20 15 -8 0 -14 5 -14 10 0 6 -3 9 -7
9 -22 -4 -43 2 -43 12 0 5 4 8 9 4 5 -3 13 -1 16 5 4 6 3 10 -2 9 -4 -1 -24
-1 -43 0 -23 1 -31 4 -22 10 11 7 10 10 -3 15 -9 3 -22 3 -28 -1 -6 -4 -8 0
-4 10 5 14 0 17 -24 17 -18 0 -28 4 -24 10 5 9 -24 15 -48 11 -5 -1 -6 3 -2 9
3 6 11 8 16 5 5 -4 9 1 9 10 0 10 -6 15 -13 12 -9 -3 -14 5 -14 27 -2 79 -8
136 -17 136 -4 0 -3 7 5 16 9 11 10 17 1 22 -6 4 -12 38 -13 74 -1 37 -6 65
-10 63 -4 -3 -5 -14 -2 -25 3 -11 1 -20 -3 -20 -5 0 -10 33 -12 72 -2 42 -8
76 -15 80 -9 6 -9 8 1 8 6 0 12 5 12 11 0 5 -5 7 -11 3 -7 -4 -10 3 -9 17 5
53 0 71 -15 65 -8 -3 -15 -1 -15 4 0 6 7 10 15 10 18 0 20 16 3 26 -7 5 -8 2
-3 -7 5 -8 4 -11 0 -6 -5 4 -10 24 -12 44 -2 20 -8 42 -13 48 -6 7 -5 16 3 25
6 7 7 10 1 7 -7 -4 -11 9 -12 36 -1 24 -8 47 -17 53 -9 7 -15 27 -15 53 0 23
-4 40 -8 37 -5 -3 -9 1 -9 9 0 8 5 12 10 8 5 -3 3 5 -4 18 -7 13 -12 36 -11
52 2 16 -3 27 -11 27 -7 0 -14 12 -15 27 -1 15 -8 30 -15 35 -9 6 -9 8 1 8 6
0 12 5 12 11 0 5 -4 7 -10 4 -9 -6 -13 19 -13 78 0 11 -5 16 -13 13 -10 -4
-14 5 -14 33 0 22 -4 41 -9 43 -6 2 -11 31 -12 65 -1 34 -6 60 -11 57 -4 -3
-6 -10 -3 -15 4 -5 1 -9 -4 -9 -6 0 -11 18 -11 40 0 24 -5 40 -12 40 -9 0 -9
3 -1 11 12 12 1 42 -23 64 -16 14 -23 63 -10 69 6 2 3 5 -6 5 -12 1 -18 9 -18
26 0 14 -6 25 -13 25 -9 0 -14 12 -15 29 0 17 -5 39 -11 50 -6 11 -11 32 -11
47 0 20 -3 24 -13 16 -10 -9 -13 -4 -15 20 -2 18 -8 38 -15 47 -9 12 -9 13 1
7 6 -4 12 -2 12 3 0 6 -4 11 -10 11 -5 0 -10 12 -10 26 0 14 -4 23 -10 19 -9
-6 -27 49 -22 68 1 4 -2 7 -8 7 -5 0 -10 11 -10 24 0 14 -7 31 -15 40 -8 8
-15 22 -15 31 0 9 -4 13 -10 10 -5 -3 -10 -1 -10 4 0 6 4 11 10 11 5 0 2 9 -7
19 -9 11 -20 18 -25 15 -5 -3 -8 -2 -7 3 4 22 -2 54 -9 49 -7 -4 -12 16 -12
61 0 12 -5 25 -12 29 -7 4 -8 3 -4 -4 4 -7 2 -12 -3 -12 -6 0 -11 11 -11 25 0
14 -5 25 -10 25 -6 0 -9 3 -9 8 5 28 -3 54 -14 49 -7 -3 -13 3 -14 12 -2 28
-8 46 -16 52 -5 4 -10 18 -10 33 -2 28 -12 34 -20 14 -5 -12 -11 36 -8 55 1 5
-3 6 -9 2 -5 -3 -10 -1 -10 6 0 6 -8 18 -17 25 -17 13 -17 14 0 8 9 -3 17 -1
17 5 0 6 -5 11 -11 11 -11 0 -39 25 -39 35 0 3 6 3 13 -1 8 -5 8 -2 -2 9 -7 9
-10 17 -5 17 5 1 -2 7 -16 15 -14 8 -21 14 -17 15 4 0 3 9 -3 20 -6 11 -16 17
-22 14 -7 -4 -8 -3 -4 5 4 6 12 9 17 6 5 -4 9 -1 9 4 0 6 -5 11 -11 11 -17 0
-40 28 -29 35 12 7 -12 35 -30 35 -7 0 -10 7 -6 15 3 8 -2 21 -10 30 -9 8 -11
15 -5 15 6 0 11 5 11 10 0 6 -3 9 -7 9 -5 -1 -15 -1 -23 0 -13 1 -13 2 0 11
13 8 12 10 -2 10 -16 0 -23 17 -19 43 0 4 -5 6 -11 5 -8 -2 -12 8 -11 27 2 17
0 24 -3 18 -10 -22 -24 -14 -24 12 0 14 -4 25 -8 25 -5 0 -13 10 -18 23 -6 12
-9 15 -7 7 2 -10 -1 -9 -12 4 -8 10 -12 23 -9 27 3 5 0 9 -6 9 -6 0 -9 3 -7 8
8 12 -12 54 -23 47 -6 -4 -10 5 -10 20 0 15 -4 24 -10 20 -6 -4 -10 5 -10 19
0 15 -5 25 -12 24 -7 -2 -14 7 -16 20 -2 12 -8 22 -13 22 -5 0 -9 9 -9 19 0
11 -4 23 -10 26 -5 3 -8 0 -7 -7 2 -7 -1 -3 -7 10 -5 12 -13 22 -18 22 -4 0
-8 7 -8 15 0 8 -7 15 -16 15 -14 0 -15 2 -3 17 10 11 10 14 2 9 -8 -4 -13 -1
-13 8 0 9 -5 16 -11 16 -5 0 -8 4 -4 9 3 5 -4 12 -15 16 -11 4 -18 11 -15 16
4 5 -1 9 -9 9 -9 0 -16 5 -16 11 0 5 5 7 10 4 6 -3 10 -2 10 4 0 5 -5 11 -10
13 -6 2 -12 13 -13 26 0 12 -5 22 -10 22 -5 0 -6 -7 -3 -16 3 -8 2 -12 -4 -9
-6 3 -10 15 -10 26 0 10 -4 19 -10 19 -5 0 -10 7 -10 15 0 8 -7 15 -15 15 -9
0 -15 10 -15 26 0 14 -4 23 -8 20 -5 -3 -9 1 -9 9 0 8 4 12 9 9 4 -3 8 9 8 25
0 21 5 31 16 31 8 0 13 4 9 9 -3 5 -1 12 5 16 6 4 8 11 5 16 -4 5 -1 9 4 9 6
0 11 11 11 25 0 14 3 24 8 24 21 -4 24 3 6 16 -16 13 -16 14 -1 9 15 -6 17 2
17 75 0 59 -3 81 -13 81 -7 0 -14 14 -15 32 -2 17 -8 38 -15 47 -10 12 -9 13
2 7 8 -6 7 0 -4 18 -9 14 -22 23 -28 19 -6 -3 -7 -1 -3 6 4 6 0 14 -9 17 -13
6 -14 8 -3 15 10 7 9 9 -5 9 -9 0 -16 6 -15 13 2 6 -3 11 -9 9 -7 -1 -13 3
-13 9 0 5 -5 7 -10 4 -6 -4 -10 -3 -9 2 4 22 -3 34 -26 43 -15 6 -25 17 -25
30 0 11 -7 20 -15 20 -8 0 -15 7 -15 16 0 9 -5 12 -12 8 -8 -5 -7 0 2 11 9 11
10 16 3 11 -9 -5 -13 -1 -14 11 0 10 -3 13 -6 6 -7 -20 -19 -15 -20 7 -2 21
-25 50 -41 50 -5 0 -15 11 -22 25 -7 14 -19 25 -27 25 -7 0 -13 7 -13 16 0 8
-4 12 -10 9 -5 -3 -10 1 -10 9 0 9 -7 16 -15 16 -8 0 -15 7 -15 15 0 8 -5 15
-11 15 -6 0 -9 7 -5 15 4 10 -1 15 -14 15 -11 0 -20 7 -20 16 0 8 -4 13 -9 10
-5 -3 -12 6 -16 22 -4 15 -10 21 -12 15 -4 -10 -8 -9 -19 1 -8 8 -14 19 -14
25 0 6 -7 11 -15 11 -8 0 -15 7 -15 16 0 11 -5 14 -16 10 -12 -4 -15 -2 -10 9
3 9 0 15 -9 15 -14 0 -20 13 -16 34 1 5 -5 4 -13 -4 -12 -9 -16 -9 -16 -1 0
16 -25 41 -40 41 -6 0 -9 4 -6 8 6 9 -29 42 -44 42 -6 0 -10 5 -10 11 0 14
-26 39 -40 39 -7 0 -10 7 -6 15 3 9 0 15 -9 15 -8 0 -15 5 -15 10 0 6 -7 10
-15 10 -8 0 -15 7 -15 15 0 8 -5 15 -11 15 -5 0 -7 5 -4 10 3 6 -3 10 -14 10
-12 0 -21 7 -21 15 0 8 -5 15 -11 15 -5 0 -7 5 -4 10 3 6 -3 10 -14 10 -12 0
-21 5 -21 11 0 16 -26 39 -44 39 -9 0 -15 3 -14 8 3 17 -16 42 -32 42 -11 0
-22 5 -26 12 -5 7 -3 8 5 3 9 -5 9 -1 -1 14 -7 12 -16 21 -21 21 -4 0 -5 -5
-1 -12 4 -6 -4 -3 -18 8 -14 10 -24 22 -21 27 2 4 -2 7 -11 7 -8 0 -16 5 -18
10 -2 6 -13 12 -25 13 -12 0 -19 5 -17 9 3 5 11 6 17 2 7 -3 3 1 -7 10 -10 8
-23 13 -28 10 -5 -3 -7 0 -6 7 2 7 -2 13 -9 14 -6 0 -15 4 -20 9 -4 5 -3 6 4
2 6 -3 14 -3 17 2 2 4 -5 9 -16 9 -25 2 -29 6 -31 32 -1 21 -2 21 -14 5 -8
-11 -13 -13 -13 -5 0 21 -26 41 -39 30 -6 -5 -9 -7 -7 -3 6 7 -31 44 -44 44
-5 0 -10 5 -10 10 0 6 -7 10 -15 10 -9 0 -12 6 -9 15 4 8 1 15 -6 15 -14 0
-40 25 -40 39 0 6 -11 11 -25 11 -14 0 -25 4 -25 9 0 5 -12 12 -27 16 -19 4
-23 9 -14 14 10 6 9 10 -4 15 -9 3 -22 3 -27 -1 -6 -3 -9 -2 -5 3 3 5 -2 18
-10 29 -13 16 -15 17 -10 3 4 -10 2 -18 -3 -18 -6 0 -10 6 -10 14 0 8 -7 17
-16 20 -9 3 -12 11 -8 18 5 8 0 7 -11 -2 -11 -9 -16 -10 -11 -2 4 7 1 12 -9
12 -9 0 -13 5 -10 10 3 6 -3 10 -14 10 -12 0 -21 5 -21 11 0 14 -26 40 -33 33
-3 -3 -10 4 -17 15 -7 15 -21 21 -43 21 -24 0 -28 3 -17 10 13 8 12 10 -5 11
-11 1 -24 1 -28 0 -5 -1 -6 3 -2 9 3 6 11 8 16 5 5 -4 9 -1 9 5 0 7 -7 10 -15
6 -8 -3 -21 1 -29 9 -8 8 -24 15 -35 15 -12 0 -21 6 -21 15 0 8 -6 15 -14 15
-8 0 -16 5 -18 10 -2 6 -13 12 -25 13 -12 0 -19 5 -17 9 3 5 9 6 14 3 5 -3 11
-1 15 4 3 6 -3 8 -15 6 -11 -2 -26 2 -34 10 -10 11 -16 11 -26 2 -10 -9 -11
-9 -6 1 4 7 1 12 -8 12 -10 0 -13 6 -10 15 4 10 0 15 -14 15 -12 0 -24 5 -27
10 -3 6 -15 10 -26 10 -11 0 -18 4 -15 9 3 5 -6 17 -20 26 -15 9 -23 12 -20 6
14 -22 -10 -10 -28 14 -10 14 -27 25 -37 25 -10 0 -21 5 -24 10 -4 6 -11 8
-16 5 -5 -4 -9 -1 -9 5 0 6 -4 8 -10 5 -5 -3 -10 2 -10 13 0 15 -5 18 -26 14
-19 -3 -25 -1 -20 7 5 7 -3 11 -25 11 -24 0 -29 3 -21 13 8 10 6 13 -9 14 -11
1 -28 8 -36 15 -9 7 -25 11 -37 10 -17 -3 -18 -2 -7 12 12 14 10 16 -18 16
-17 0 -31 5 -31 10 0 6 -11 10 -25 10 -16 0 -25 6 -25 15 0 13 -13 20 -23 13
-2 -2 -11 3 -20 10 -9 8 -21 11 -27 7 -5 -3 -10 -1 -10 5 0 6 -4 8 -10 5 -5
-3 -10 1 -10 9 0 9 -7 16 -15 16 -8 0 -15 5 -15 10 0 6 -16 10 -35 10 -19 0
-35 5 -35 11 0 5 5 7 12 3 6 -4 8 -3 5 3 -4 6 -19 11 -34 11 -15 0 -29 5 -31
11 -2 6 -15 11 -28 11 -15 0 -24 6 -24 15 0 9 -9 15 -25 15 -14 0 -25 5 -25
10 0 6 -9 10 -21 10 -11 0 -27 7 -35 15 -9 8 -24 15 -35 15 -14 0 -18 4 -13
13 5 7 0 6 -11 -3 -11 -9 -16 -10 -11 -2 7 12 -11 17 -43 12 -12 -1 -12 1 -3
12 9 11 5 14 -21 16 -17 2 -34 7 -38 13 -3 6 -9 10 -13 10 -31 -4 -56 1 -53
11 1 7 -9 14 -23 16 -14 2 -29 8 -35 13 -5 5 -20 9 -33 9 -15 0 -21 4 -16 12
4 7 3 8 -5 4 -6 -4 -18 0 -27 8 -9 9 -20 13 -26 10 -6 -4 -13 -2 -17 4 -4 6
-21 12 -38 14 -17 1 -29 6 -27 10 3 5 11 5 17 2 7 -4 8 -3 4 1 -9 10 -29 15
-74 17 -18 1 -33 6 -33 11 0 5 7 6 16 3 8 -3 12 -2 9 4 -3 6 -29 10 -56 10
-31 0 -48 4 -44 10 4 6 -5 10 -21 10 -15 0 -32 7 -38 16 -7 8 -27 16 -46 16
-19 0 -40 4 -46 9 -6 5 -24 9 -42 11 -22 2 -28 5 -21 14 6 8 4 11 -8 11 -45 0
-64 4 -59 11 3 5 -11 10 -32 11 -20 1 -43 3 -49 3 -10 1 -10 5 -1 15 6 8 7 13
2 12 -26 -5 -87 2 -77 9 7 4 -6 9 -30 10 -52 2 -88 9 -96 18 -3 4 2 4 11 1 10
-3 20 -2 23 3 4 6 -15 10 -44 10 -31 0 -51 4 -51 11 0 8 -6 7 -17 -2 -11 -10
-14 -10 -9 -1 5 9 -4 12 -33 12 -27 0 -41 4 -41 13 0 7 -12 14 -27 15 -15 1
-31 6 -37 12 -6 6 -16 5 -29 -1 -13 -8 -17 -8 -13 -1 4 6 -2 11 -11 11 -68 2
-86 4 -75 8 28 11 9 20 -45 22 -32 1 -60 7 -61 12 -3 6 -10 5 -20 -3 -12 -10
-14 -10 -8 0 5 9 -5 12 -39 12 -28 0 -44 4 -40 10 3 6 3 10 -2 11 -4 1 -30 3
-58 5 -27 2 -57 7 -65 11 -22 9 -40 12 -93 14 -31 2 -51 8 -57 18 -5 9 -11 15
-14 14 -15 -7 -87 -2 -82 5 3 5 -1 9 -9 9 -8 0 -12 -4 -9 -9 3 -4 1 -8 -5 -8
-5 0 -11 4 -13 9 -1 6 -36 11 -76 12 -40 1 -75 6 -78 10 -2 4 5 6 16 4 11 -2
18 0 16 4 -3 4 -36 9 -73 10 -39 1 -71 7 -75 14 -6 9 -8 9 -8 0 0 -7 -5 -13
-11 -13 -5 0 -7 5 -4 10 3 6 1 10 -4 10 -6 0 -11 -5 -11 -11 0 -8 -6 -7 -17 2
-15 12 -16 12 -8 -1 7 -13 6 -13 -7 -2 -10 8 -51 14 -102 16 -47 1 -89 6 -94
11 -4 4 1 5 11 2 9 -4 17 -2 17 3 0 6 -39 10 -91 10 -49 0 -88 4 -85 8 2 4 -4
8 -14 8 -10 0 -16 -4 -14 -8 3 -4 -5 -8 -18 -8 -18 0 -20 2 -8 10 13 8 13 10
-2 10 -9 0 -20 -4 -23 -10 -3 -5 -12 -10 -18 -10 -7 0 -6 4 3 10 10 7 -28 10
-117 10 -100 0 -133 3 -133 13 0 8 -3 9 -8 1 -8 -13 -92 -15 -92 -2 0 5 4 7 9
3 5 -3 12 -2 14 2 3 5 -72 9 -166 11 -296 5 -469 7 -471 5z m-342 -22 c-8 -8
-64 -10 -64 -2 0 4 16 7 35 7 19 0 32 -2 29 -5z m936 -1 c0 -4 -7 -7 -15 -6
-23 3 -26 12 -5 13 11 1 20 -2 20 -7z m1540 -200 c0 -5 -5 -10 -11 -10 -5 0
-7 5 -4 10 3 6 8 10 11 10 2 0 4 -4 4 -10z m-6740 -1080 c0 -5 -2 -10 -4 -10
-3 0 -8 5 -11 10 -3 6 -1 10 4 10 6 0 11 -4 11 -10z m4160 -468 c0 -5 -7 -9
-15 -9 -8 0 -12 4 -9 9 3 4 9 8 15 8 5 0 9 -4 9 -8z m-460 -52 c0 -5 -8 -10
-17 -10 -15 0 -16 2 -3 10 19 12 20 12 20 0z m3560 -394 c0 -3 -4 -8 -10 -11
-5 -3 -10 -1 -10 4 0 6 5 11 10 11 6 0 10 -2 10 -4z m1380 -732 c0 -8 -19 -13
-24 -6 -3 5 1 9 9 9 8 0 15 -2 15 -3z m280 -204 c0 -5 -5 -10 -11 -10 -5 0 -7
5 -4 10 3 6 8 10 11 10 2 0 4 -4 4 -10z m-11810 -1970 c0 -5 -2 -10 -4 -10 -3
0 -8 5 -11 10 -3 6 -1 10 4 10 6 0 11 -4 11 -10z m14070 -1020 c0 -5 -5 -10
-11 -10 -5 0 -7 5 -4 10 3 6 8 10 11 10 2 0 4 -4 4 -10z m2895 -4969 c3 -5 2
-12 -3 -15 -5 -3 -9 1 -9 9 0 17 3 19 12 6z m-18699 -27 c1 -9 0 -13 -4 -10
-3 4 -7 14 -8 22 -1 9 0 13 4 10 3 -4 7 -14 8 -22z m16349 -1004 c3 -5 1 -10
-4 -10 -6 0 -11 5 -11 10 0 6 2 10 4 10 3 0 8 -4 11 -10z"/>
<path d="M10010 18819 c0 -5 5 -7 10 -4 6 3 10 8 10 11 0 2 -4 4 -10 4 -5 0
-10 -5 -10 -11z"/>
<path d="M10620 18770 c0 -5 5 -10 11 -10 5 0 7 5 4 10 -3 6 -8 10 -11 10 -2
0 -4 -4 -4 -10z"/>
<path d="M7690 18668 c0 -3 9 -6 20 -5 11 1 20 5 20 9 0 3 -9 6 -20 5 -11 -1
-20 -5 -20 -9z"/>
<path d="M11240 18675 c0 -7 30 -13 34 -7 3 4 -4 9 -15 9 -10 1 -19 0 -19 -2z"/>
<path d="M12915 16150 c3 -5 8 -10 11 -10 2 0 4 5 4 10 0 6 -5 10 -11 10 -5 0
-7 -4 -4 -10z"/>
<path d="M4335 14790 c-3 -5 -1 -10 4 -10 6 0 11 5 11 10 0 6 -2 10 -4 10 -3
0 -8 -4 -11 -10z"/>
<path d="M4230 14690 c0 -5 5 -10 10 -10 6 0 10 5 10 10 0 6 -4 10 -10 10 -5
0 -10 -4 -10 -10z"/>
<path d="M1335 12190 c-3 -5 -1 -10 4 -10 6 0 11 5 11 10 0 6 -2 10 -4 10 -3
0 -8 -4 -11 -10z"/>
<path d="M2775 11930 c3 -5 8 -10 11 -10 2 0 4 5 4 10 0 6 -5 10 -11 10 -5 0
-7 -4 -4 -10z"/>
<path d="M17696 11603 c-6 -14 -5 -15 5 -6 7 7 10 15 7 18 -3 3 -9 -2 -12 -12z"/>
<path d="M1230 11580 c0 -5 5 -10 11 -10 5 0 7 5 4 10 -3 6 -8 10 -11 10 -2 0
-4 -4 -4 -10z"/>
<path d="M1130 11509 c0 -5 5 -7 10 -4 6 3 10 8 10 11 0 2 -4 4 -10 4 -5 0
-10 -5 -10 -11z"/>
<path d="M2675 11450 c-3 -5 -1 -10 4 -10 6 0 11 5 11 10 0 6 -2 10 -4 10 -3
0 -8 -4 -11 -10z"/>
<path d="M2620 11149 c0 -5 5 -7 10 -4 6 3 10 8 10 11 0 2 -4 4 -10 4 -5 0
-10 -5 -10 -11z"/>
<path d="M2626 11113 c-6 -14 -5 -15 5 -6 7 7 10 15 7 18 -3 3 -9 -2 -12 -12z"/>
<path d="M550 11110 c0 -5 5 -10 11 -10 5 0 7 5 4 10 -3 6 -8 10 -11 10 -2 0
-4 -4 -4 -10z"/>
<path d="M450 11009 c0 -5 5 -7 10 -4 6 3 10 8 10 11 0 2 -4 4 -10 4 -5 0 -10
-5 -10 -11z"/>
<path d="M2576 10643 c-6 -14 -5 -15 5 -6 7 7 10 15 7 18 -3 3 -9 -2 -12 -12z"/>
<path d="M4718 9883 c7 -3 16 -2 19 1 4 3 -2 6 -13 5 -11 0 -14 -3 -6 -6z"/>
<path d="M4756 9879 c3 -5 10 -6 16 -3 6 4 8 3 5 -2 -3 -6 -41 -11 -83 -12
-43 -2 -84 -8 -91 -14 -10 -8 -13 -7 -13 3 0 10 -2 11 -8 2 -4 -7 -26 -13 -49
-14 -23 -2 -40 -7 -37 -11 3 -5 11 -5 17 -2 7 4 9 3 4 -1 -4 -5 -17 -10 -29
-12 -12 -2 -29 -10 -38 -18 -9 -8 -30 -15 -47 -15 -17 0 -34 -6 -36 -12 -4 -9
-6 -8 -6 2 -1 12 -3 12 -10 2 -4 -7 -24 -14 -43 -15 -20 -1 -34 -6 -31 -10 3
-5 -4 -11 -16 -14 -12 -3 -18 -10 -14 -17 4 -6 -2 -4 -12 4 -11 9 -16 10 -11
3 6 -12 -17 -19 -46 -14 -4 0 -5 -6 -2 -14 4 -9 0 -15 -10 -15 -9 0 -16 -4
-16 -10 0 -5 -7 -10 -15 -10 -8 0 -15 -7 -15 -15 0 -8 -5 -15 -11 -15 -16 0
-39 -26 -39 -44 0 -8 -6 -13 -12 -11 -7 3 -18 -6 -25 -20 -8 -19 -8 -24 0 -19
7 3 -1 -7 -18 -22 -17 -15 -22 -25 -12 -21 9 3 17 2 17 -3 0 -6 -7 -10 -15
-10 -9 0 -15 -9 -15 -25 0 -14 -4 -25 -10 -25 -5 0 -10 -17 -10 -37 0 -27 -3
-34 -9 -24 -8 12 -11 8 -17 -15 -5 -16 -8 -32 -9 -36 0 -3 -3 -10 -7 -14 -5
-4 -8 -22 -8 -41 0 -23 -5 -33 -15 -33 -11 0 -15 -11 -15 -41 0 -24 -4 -38
-10 -34 -6 4 -10 -11 -10 -39 0 -25 -5 -48 -12 -52 -7 -4 -8 -3 -4 4 4 7 2 12
-3 12 -6 0 -11 -16 -11 -35 0 -21 -5 -35 -12 -35 -9 0 -8 -4 2 -11 11 -8 12
-12 3 -16 -8 -3 -13 -25 -13 -59 0 -43 -3 -52 -15 -48 -12 5 -15 -4 -15 -49 0
-31 -4 -59 -10 -62 -15 -9 -12 -27 3 -19 10 6 10 4 0 -7 -7 -7 -13 -30 -13
-52 0 -21 -4 -36 -8 -33 -5 3 -9 -1 -9 -9 0 -8 4 -12 8 -9 4 2 7 -5 6 -16 -1
-22 -13 -27 -21 -7 -3 6 -3 -1 -1 -16 2 -16 10 -36 17 -45 12 -15 11 -16 -4
-3 -17 13 -18 8 -18 -72 0 -47 -4 -89 -10 -92 -5 -3 -10 -16 -9 -28 1 -21 2
-20 9 3 8 23 8 22 7 -8 -1 -19 -5 -36 -9 -38 -4 -3 -8 -13 -8 -22 0 -15 2 -15
11 -2 9 12 9 11 4 -5 -16 -41 -17 -76 -4 -92 8 -9 9 -14 3 -10 -8 5 -12 -14
-12 -63 -1 -52 2 -69 11 -64 8 5 8 3 0 -7 -15 -16 -17 -75 -3 -84 6 -3 10 -12
10 -18 0 -7 -4 -6 -10 3 -6 10 -9 6 -8 -18 1 -17 4 -29 9 -27 4 3 6 -3 4 -12
-2 -10 -4 -18 -5 -18 -1 0 -3 -10 -4 -22 -1 -12 1 -20 6 -17 13 8 10 -10 -4
-25 -8 -8 -8 -11 -2 -8 10 6 19 -111 16 -205 -1 -10 4 -18 9 -18 6 0 7 5 4 10
-3 6 -1 10 4 10 15 0 14 -27 -1 -33 -10 -4 -10 -6 0 -6 8 -1 12 -19 12 -57 0
-30 4 -53 8 -50 5 3 9 -1 9 -9 0 -8 -4 -12 -9 -9 -4 3 -8 1 -8 -5 0 -5 4 -11
10 -13 5 -1 10 -29 12 -60 2 -35 8 -58 14 -58 6 0 12 -10 13 -22 2 -53 7 -73
16 -80 6 -5 5 -11 -4 -17 -10 -7 -11 -9 -1 -13 7 -2 13 -18 12 -36 0 -20 4
-32 12 -32 8 0 13 -14 14 -37 1 -20 7 -40 13 -44 8 -5 7 -8 -2 -12 -10 -4 -10
-6 -1 -6 7 -1 12 -14 12 -31 0 -17 5 -30 13 -30 8 0 7 -4 -3 -10 -13 -8 -12
-10 3 -10 12 0 17 -8 17 -31 0 -16 3 -28 8 -26 4 3 8 -5 9 -16 6 -75 8 -84 20
-80 9 4 13 -5 13 -27 0 -18 4 -29 10 -25 6 4 10 -8 10 -29 0 -26 4 -36 16 -36
10 0 14 -6 11 -14 -3 -7 1 -26 9 -41 8 -15 14 -34 14 -41 0 -8 7 -14 15 -14
10 0 15 -10 15 -31 0 -17 4 -28 10 -24 6 4 10 -7 10 -25 0 -22 4 -31 13 -27
12 4 15 -5 19 -50 1 -8 5 -9 13 -3 7 6 11 2 12 -13 1 -12 7 -23 13 -25 5 -2
10 -18 10 -35 0 -24 3 -28 10 -17 9 15 11 14 14 -12 1 -7 8 -12 16 -10 11 3
11 0 -1 -14 -9 -12 -9 -15 -1 -10 8 5 12 0 12 -18 0 -14 5 -28 12 -32 6 -4 8
-3 4 4 -3 6 -3 13 2 16 4 2 9 -5 9 -17 1 -12 7 -23 13 -25 5 -2 10 -15 10 -28
0 -13 5 -24 11 -24 5 0 7 5 3 12 -4 7 -3 8 4 4 7 -4 12 -15 12 -24 0 -10 11
-26 25 -36 14 -10 25 -27 25 -37 0 -11 5 -19 11 -19 5 0 7 -5 4 -10 -3 -6 1
-13 9 -16 8 -3 18 -15 22 -27 8 -25 28 -47 43 -47 6 0 11 -7 11 -15 0 -8 5
-15 10 -15 6 0 10 -6 10 -14 0 -8 5 -18 12 -22 7 -4 8 -3 4 4 -4 7 -2 12 3 12
10 0 16 -21 12 -42 0 -5 4 -8 9 -8 6 0 10 -7 10 -15 0 -8 7 -15 16 -15 8 0 12
-4 9 -10 -3 -5 1 -10 9 -10 9 0 16 -7 16 -15 0 -8 5 -15 11 -15 14 0 40 -26
32 -34 -3 -3 3 -9 13 -13 24 -9 44 -28 44 -42 0 -6 9 -11 21 -11 11 0 17 -4
14 -10 -3 -5 -1 -10 4 -10 6 0 11 -7 11 -15 0 -8 7 -15 15 -15 8 0 15 -7 15
-15 0 -8 6 -15 14 -15 8 0 17 -6 19 -12 4 -10 6 -10 6 0 1 10 4 10 16 -2 8 -8
15 -19 15 -25 0 -6 5 -11 11 -11 14 0 39 -26 39 -40 0 -7 7 -10 15 -6 8 3 15
1 15 -5 0 -6 5 -7 10 -4 6 4 9 1 8 -7 -2 -8 4 -12 15 -10 10 2 16 -2 15 -9 -2
-7 6 -15 17 -17 11 -2 30 -15 42 -28 12 -13 29 -24 38 -24 9 0 13 -4 10 -10
-4 -6 5 -10 19 -10 15 0 26 -6 26 -13 0 -7 10 -13 21 -14 12 -1 29 -9 39 -18
11 -10 24 -14 31 -9 9 5 10 2 6 -9 -5 -14 0 -17 29 -17 22 0 33 -4 29 -11 -4
-6 -1 -10 6 -8 36 4 83 -2 71 -10 -11 -7 -10 -10 3 -15 9 -3 26 -6 36 -6 14 0
18 -4 13 -12 -6 -10 -4 -10 8 0 10 8 17 9 20 3 1 -5 29 -11 60 -12 32 -1 63
-7 70 -12 9 -6 8 -7 -5 -3 -11 3 -16 2 -12 -4 3 -6 33 -10 66 -10 33 0 59 -4
59 -10 0 -5 7 -10 16 -10 9 0 12 5 8 13 -6 9 -5 9 7 0 9 -7 49 -13 92 -14 52
-1 77 -5 77 -13 0 -12 12 -13 168 -15 47 -1 61 -4 56 -13 -6 -10 -4 -10 7 0
14 13 33 17 25 4 -2 -4 5 -9 17 -9 17 -2 19 0 7 7 -8 5 -12 10 -7 10 4 0 16
-6 27 -12 17 -11 22 -10 30 2 5 8 10 10 10 4 0 -6 27 -12 68 -14 37 -1 81 -3
97 -4 17 0 36 -5 44 -10 10 -7 12 -6 6 3 -5 9 -2 12 11 9 11 -2 18 -10 16 -17
-1 -7 2 -10 8 -6 6 3 8 11 5 16 -11 17 34 9 45 -9 8 -12 10 -12 7 -2 -4 13 7
16 63 16 38 -1 66 -4 64 -8 -3 -4 -11 -5 -19 -1 -8 3 -15 1 -15 -4 0 -5 16 -9
35 -9 21 1 34 5 31 12 -2 6 2 11 9 11 7 0 11 -6 8 -13 -3 -9 6 -12 31 -11 27
2 35 6 31 17 -3 10 -1 10 9 -2 7 -10 19 -18 26 -18 10 0 10 3 0 15 -17 20 -6
19 15 -1 12 -13 19 -14 28 -5 6 6 18 11 26 10 11 0 10 -3 -4 -9 -11 -4 193 -8
453 -9 304 0 471 3 467 9 -3 6 -1 10 4 10 6 0 11 -4 11 -10 0 -14 33 -12 49 2
8 7 11 8 8 2 -4 -6 9 -10 33 -11 31 -1 38 2 33 16 -4 14 -3 14 9 0 9 -11 31
-15 81 -15 37 0 67 4 67 8 0 5 -13 6 -29 3 -17 -3 -32 -2 -35 3 -4 7 7 8 117
11 27 0 46 4 44 9 -3 4 14 8 36 9 23 2 47 10 53 18 6 8 23 15 38 15 16 0 25 4
21 10 -3 6 5 10 18 10 14 0 27 7 31 15 3 8 17 15 31 15 14 0 37 7 50 16 13 9
30 13 37 9 7 -4 4 1 -6 9 -19 16 -19 16 6 16 15 0 28 5 30 10 2 6 13 12 26 13
12 0 22 7 22 14 0 7 7 13 15 13 8 0 15 5 15 11 0 5 5 7 10 4 6 -3 13 1 16 10
6 13 8 14 15 3 7 -10 9 -10 9 3 0 8 16 21 35 29 19 8 35 18 35 22 0 5 -5 6
-12 2 -7 -4 -8 -3 -4 4 4 7 16 12 27 12 11 0 17 5 14 10 -3 6 1 10 9 10 9 0
16 7 16 15 0 8 5 15 11 15 6 0 17 6 25 14 8 8 14 19 14 25 0 6 5 11 10 11 16
0 90 78 90 95 0 9 6 12 17 8 12 -5 15 -2 10 10 -4 11 -1 17 8 17 10 0 15 10
15 29 0 17 5 33 12 37 7 4 8 3 4 -4 -4 -7 -5 -12 -2 -12 8 0 36 62 36 82 0 10
6 17 13 15 7 -1 13 10 15 26 2 15 8 25 13 22 5 -4 9 7 9 23 0 17 6 32 15 36 8
3 15 14 15 25 0 11 5 23 10 26 6 3 10 19 10 36 0 19 5 29 15 29 8 0 15 4 15
10 0 5 -8 7 -17 4 -17 -5 -17 -5 0 9 9 8 17 26 17 40 0 14 5 29 10 32 8 5 8
11 1 19 -7 9 -7 16 0 23 6 6 10 29 11 52 0 29 5 41 15 41 12 0 11 3 -2 17 -16
15 -16 18 -1 28 22 17 23 159 1 181 -9 9 -15 34 -15 60 0 27 -4 43 -10 39 -5
-3 -7 0 -4 8 3 8 -3 22 -13 32 -16 17 -21 29 -25 68 -1 9 -10 17 -19 17 -16 0
-34 26 -31 43 1 4 -3 7 -8 7 -6 0 -10 11 -10 25 0 18 -4 23 -15 19 -10 -4 -15
0 -15 11 0 19 -23 45 -40 45 -6 0 -10 5 -8 12 2 6 -4 20 -14 30 -10 10 -16 23
-13 28 4 6 -1 10 -9 10 -9 0 -16 9 -16 20 0 11 -7 23 -15 26 -8 4 -12 11 -8
18 4 6 -2 4 -12 -4 -11 -9 -16 -10 -11 -2 4 6 3 12 -3 12 -6 0 -7 7 -4 17 4
11 3 14 -5 9 -8 -5 -12 0 -12 13 0 14 -5 19 -15 15 -10 -4 -15 0 -15 14 0 23
-23 45 -36 34 -4 -4 -2 1 5 11 10 12 10 17 2 17 -15 0 -41 25 -41 39 0 6 -7
11 -15 11 -8 0 -15 7 -15 16 0 8 -4 12 -10 9 -6 -4 -10 5 -10 19 0 16 -6 26
-15 26 -8 0 -15 5 -15 11 0 14 -25 39 -39 39 -6 0 -11 7 -11 15 0 8 -6 15 -12
15 -9 0 -8 4 2 10 13 8 12 10 -4 10 -12 0 -16 5 -12 16 3 8 2 12 -3 9 -5 -3
-12 -1 -16 5 -4 6 -11 8 -16 4 -5 -3 -9 -2 -8 3 4 15 -13 43 -22 37 -5 -3 -9
2 -9 10 0 9 -4 16 -10 16 -5 0 -10 7 -10 16 0 8 -4 13 -9 10 -11 -7 -41 37
-41 59 0 8 -5 15 -11 15 -5 0 -7 -6 -4 -12 4 -7 0 -5 -8 4 -8 10 -17 16 -21
13 -3 -3 -2 0 3 6 10 13 -9 39 -28 39 -6 0 -11 7 -11 15 0 8 -9 15 -21 15 -11
0 -17 5 -14 10 3 6 1 10 -4 10 -6 0 -11 7 -11 16 0 8 -5 12 -10 9 -6 -3 -13 1
-16 9 -3 9 -12 16 -20 16 -8 0 -11 6 -8 15 4 9 0 15 -10 15 -9 0 -16 8 -16 21
0 11 -4 17 -10 14 -5 -3 -10 -1 -10 5 0 7 -7 10 -15 6 -9 -3 -15 0 -15 10 0
18 -23 44 -39 44 -6 0 -11 4 -11 10 0 15 -33 50 -42 44 -4 -3 -8 0 -8 6 0 14
-25 40 -39 40 -6 0 -11 5 -11 11 0 14 -25 39 -39 39 -6 0 -11 5 -11 11 0 13
-25 39 -38 39 -5 0 -15 11 -22 25 -7 13 -17 22 -22 19 -5 -3 -12 3 -14 13 -6
23 -57 56 -70 45 -4 -4 -2 1 6 11 11 16 11 18 -1 15 -8 -2 -13 3 -11 11 3 12
1 12 -13 1 -9 -7 -15 -9 -14 -4 5 30 -3 44 -26 44 -14 0 -25 5 -25 11 0 5 -4
7 -10 4 -5 -3 -10 3 -10 14 0 12 -7 21 -15 21 -8 0 -15 6 -15 13 0 8 -4 7 -10
-3 -8 -13 -10 -12 -10 3 0 9 -5 16 -12 15 -7 -2 -12 3 -13 10 0 8 -8 19 -17
26 -10 7 -14 17 -10 22 4 4 -2 2 -12 -6 -18 -14 -19 -13 -13 3 4 11 2 17 -7
17 -8 0 -17 7 -20 16 -3 8 -10 12 -16 9 -5 -3 -10 -1 -10 5 0 18 -27 40 -50
40 -12 0 -18 4 -15 11 4 6 -2 13 -14 16 -12 3 -21 9 -21 14 0 5 -7 9 -15 9 -9
0 -12 6 -9 15 4 9 0 15 -10 15 -9 0 -16 5 -16 10 0 6 -12 10 -27 10 -24 0 -25
1 -10 13 16 11 15 12 -7 13 -26 2 -56 25 -56 43 0 6 -5 11 -11 11 -6 0 -8 -7
-5 -16 3 -8 2 -12 -4 -9 -6 3 -10 13 -10 20 0 13 -32 37 -41 32 -2 -1 3 4 11
12 13 12 13 13 -2 8 -9 -3 -22 0 -28 8 -6 7 -23 16 -37 20 -21 5 -24 8 -12 16
11 7 10 9 -6 9 -24 1 -57 24 -48 34 4 4 -3 9 -15 13 -12 3 -22 10 -22 15 0 12
-26 38 -38 38 -6 0 -13 7 -16 16 -3 8 -10 13 -15 10 -5 -4 -16 0 -24 8 -8 8
-17 12 -21 9 -3 -4 -6 4 -6 16 0 12 -4 20 -8 17 -14 -8 -54 25 -48 40 3 8 2
13 -2 13 -25 -4 -52 3 -47 11 4 6 -5 10 -19 10 -14 0 -26 5 -26 11 0 5 5 7 12
3 7 -4 8 -3 4 4 -4 7 -14 12 -22 12 -18 0 -44 24 -44 39 0 6 -6 11 -13 11 -19
0 -67 24 -67 33 0 14 -28 37 -45 37 -10 0 -15 6 -12 13 6 15 -67 51 -86 42 -7
-3 -5 0 5 7 15 11 14 13 -9 25 -14 7 -32 13 -39 13 -8 0 -14 7 -14 15 0 8 -6
14 -12 13 -7 -2 -12 3 -10 11 3 12 1 12 -14 0 -12 -9 -15 -9 -10 -1 4 7 1 12
-9 12 -8 0 -18 7 -21 15 -4 8 -13 15 -21 15 -8 0 -11 5 -8 10 3 6 -1 10 -10
10 -11 0 -15 5 -11 15 3 8 2 14 -2 14 -4 -1 -23 -1 -42 1 -29 1 -32 3 -15 10
17 7 15 9 -12 9 -18 1 -33 6 -33 12 0 5 5 7 12 3 7 -4 8 -3 4 4 -4 7 -14 12
-22 12 -8 0 -14 5 -14 10 0 6 -11 10 -25 10 -16 0 -25 6 -25 15 0 8 -7 15 -16
15 -9 0 -12 5 -8 13 5 7 2 7 -10 -2 -14 -12 -17 -12 -14 -1 2 10 -6 14 -25 14
-22 -1 -25 1 -16 12 9 11 7 14 -10 14 -11 0 -21 5 -21 10 0 6 -7 10 -15 10 -8
0 -15 7 -15 16 0 8 -4 13 -9 10 -15 -9 -41 5 -41 21 0 13 -3 13 -16 3 -8 -8
-14 -9 -13 -4 4 24 -3 34 -24 34 -30 0 -102 37 -85 43 12 5 -16 11 -34 8 -5 0
-8 4 -8 9 0 6 -7 10 -16 10 -9 0 -12 5 -8 13 5 7 0 6 -11 -3 -17 -14 -18 -13
-12 3 4 11 2 17 -8 17 -8 0 -15 6 -15 13 0 8 -4 7 -11 -3 -8 -11 -12 -12 -16
-2 -2 6 -16 12 -31 12 -23 0 -24 1 -8 13 18 13 14 15 -46 18 -10 0 -18 4 -18
10 0 5 -7 9 -16 9 -9 0 -12 5 -8 13 5 9 4 9 -6 0 -7 -6 -19 -9 -28 -5 -13 5
-12 7 4 13 15 6 12 8 -13 8 -18 1 -33 6 -33 11 0 6 -18 10 -40 10 -33 0 -38 3
-33 18 6 15 5 16 -12 2 -11 -9 -16 -10 -11 -2 5 8 -1 12 -18 13 -39 2 -44 3
-53 13 -4 5 -3 6 4 2 6 -3 14 -3 17 2 3 5 -18 10 -47 11 -29 1 -54 7 -55 12
-3 6 -10 5 -20 -3 -12 -10 -14 -10 -8 0 5 9 -6 12 -43 12 -34 0 -51 4 -51 13
0 8 -3 9 -8 1 -8 -12 -42 -15 -42 -3 0 4 8 9 18 11 9 2 -20 4 -65 4 -47 0 -80
-3 -76 -8 3 -5 -5 -4 -16 4 -18 11 -23 11 -30 -1 -7 -11 -9 -11 -14 0 -4 12
-7 11 -16 -1 -12 -17 -33 -20 -43 -6 -8 12 -40 17 -32 5z m228 -7 c3 -5 -1 -9
-9 -9 -8 0 -12 4 -9 9 3 4 7 8 9 8 2 0 6 -4 9 -8z m-684 -132 c0 -5 -5 -10
-11 -10 -5 0 -7 5 -4 10 3 6 8 10 11 10 2 0 4 -4 4 -10z m-535 -2109 c3 -5 2
-12 -3 -15 -5 -3 -9 1 -9 9 0 17 3 19 12 6z m4201 -2554 c4 -3 -4 -4 -16 -2
-30 6 -40 16 -12 12 12 -2 24 -6 28 -10z"/>
<path d="M4805 9880 c3 -5 8 -10 11 -10 2 0 4 5 4 10 0 6 -5 10 -11 10 -5 0
-7 -4 -4 -10z"/>
<path d="M4415 9800 c-8 -13 5 -13 25 0 13 8 13 10 -2 10 -9 0 -20 -4 -23 -10z"/>
<path d="M3895 9250 c-3 -5 -1 -10 4 -10 6 0 11 5 11 10 0 6 -2 10 -4 10 -3 0
-8 -4 -11 -10z"/>
<path d="M2551 8654 c0 -11 3 -14 6 -6 3 7 2 16 -1 19 -3 4 -6 -2 -5 -13z"/>
<path d="M13894 8265 c-3 -6 -26 -12 -52 -14 -25 -1 -53 -8 -61 -14 -12 -9
-13 -9 -7 1 4 7 1 12 -9 12 -10 0 -13 -5 -9 -12 5 -8 0 -7 -11 2 -10 8 -16 10
-12 4 4 -7 -4 -12 -21 -12 -46 -3 -63 -8 -74 -23 -8 -11 -9 -11 -4 4 3 11 0
17 -9 17 -10 0 -12 -6 -8 -17 6 -16 5 -17 -12 -3 -11 9 -16 10 -11 3 5 -10 -5
-13 -38 -13 -30 0 -46 -4 -46 -12 0 -10 -3 -9 -9 1 -5 8 -10 9 -12 3 -2 -6
-27 -12 -56 -13 -38 -2 -50 -6 -46 -16 3 -7 0 -13 -5 -13 -6 0 -13 8 -15 18
-4 16 -5 16 -6 -1 0 -10 -5 -15 -11 -12 -5 3 -10 2 -10 -3 0 -5 -12 -7 -26 -4
-21 4 -25 2 -19 -9 7 -11 6 -12 -6 -2 -11 9 -18 8 -32 -2 -10 -7 -26 -11 -36
-8 -10 3 -22 -1 -26 -8 -5 -8 -4 -10 3 -5 7 4 12 2 12 -3 0 -6 -15 -11 -33
-11 -18 0 -39 -6 -46 -12 -11 -10 -13 -10 -7 0 4 6 3 12 -3 12 -5 0 -11 -4
-13 -10 -1 -5 -24 -10 -50 -11 -33 -2 -48 -7 -48 -16 0 -8 -13 -13 -36 -13
-21 0 -33 -4 -29 -10 9 -14 -8 -12 -24 3 -11 10 -13 10 -7 0 5 -9 -3 -13 -26
-14 -18 -1 -37 -1 -41 0 -5 1 -6 -3 -2 -8 3 -6 13 -8 23 -5 12 4 13 3 4 -3 -6
-5 -33 -10 -60 -12 -26 -1 -51 -6 -57 -12 -5 -5 -22 -9 -37 -9 -20 0 -28 -5
-28 -17 -1 -16 -2 -16 -17 2 -14 18 -15 18 -9 1 5 -13 2 -17 -9 -13 -8 4 -17
2 -20 -4 -4 -5 -11 -7 -16 -4 -5 4 -9 1 -9 -6 0 -8 -5 -7 -17 2 -11 10 -14 10
-9 2 5 -9 -2 -13 -23 -13 -21 0 -31 -5 -31 -15 0 -11 -11 -15 -36 -15 -21 0
-33 -4 -29 -10 3 -5 1 -10 -4 -10 -6 0 -11 5 -11 10 0 6 -5 10 -11 10 -5 0 -7
-4 -4 -10 4 -6 -7 -10 -24 -10 -21 0 -31 -5 -31 -16 0 -9 -8 -14 -17 -13 -10
1 -29 1 -43 0 -20 -1 -22 -3 -10 -12 12 -8 12 -10 -5 -8 -11 1 -33 1 -50 0
-22 -1 -26 -4 -15 -10 8 -6 19 -7 25 -4 5 4 6 2 2 -3 -9 -9 -13 -10 -65 -12
-19 -1 -31 -6 -27 -12 4 -6 -8 -10 -29 -10 -25 0 -36 -4 -36 -15 0 -8 -4 -15
-10 -15 -5 0 -7 8 -4 18 5 16 5 16 -6 0 -6 -10 -22 -18 -35 -18 -14 0 -25 -4
-25 -10 0 -5 -11 -10 -24 -10 -14 0 -28 -5 -32 -12 -5 -7 -3 -8 6 -3 9 5 11 4
6 -3 -4 -7 -24 -12 -44 -12 -24 0 -32 -3 -24 -9 11 -7 10 -10 -3 -15 -9 -3
-28 -6 -41 -6 -14 0 -22 -4 -19 -10 3 -5 0 -7 -8 -4 -8 3 -25 -5 -37 -18 -17
-17 -21 -19 -17 -5 4 9 2 17 -3 17 -6 0 -10 -7 -10 -15 0 -9 -9 -15 -25 -15
-14 0 -25 -4 -25 -10 0 -5 -16 -10 -35 -10 -24 0 -35 -5 -35 -15 0 -13 -12
-17 -36 -14 -4 0 -10 -4 -14 -11 -4 -6 -16 -12 -28 -13 -17 -1 -19 -4 -9 -16
7 -8 7 -12 1 -8 -6 3 -23 0 -38 -8 -14 -8 -24 -10 -21 -5 11 19 -8 10 -26 -12
-11 -11 -19 -16 -19 -10 0 7 -7 12 -16 12 -14 0 -14 -3 -4 -15 11 -13 8 -15
-18 -15 -17 0 -34 -4 -37 -10 -3 -5 -15 -10 -26 -10 -10 0 -19 -7 -19 -15 0
-9 -9 -15 -25 -15 -14 0 -25 -4 -25 -10 0 -5 -11 -10 -25 -10 -16 0 -25 -6
-25 -16 0 -8 -4 -13 -9 -9 -5 3 -12 1 -16 -5 -4 -6 -11 -8 -16 -5 -5 4 -9 1
-9 -4 0 -6 -9 -11 -20 -11 -11 0 -27 -8 -36 -19 -10 -11 -25 -17 -38 -14 -17
4 -18 3 -6 -6 12 -8 8 -11 -17 -11 -23 0 -33 -5 -33 -15 0 -9 -9 -15 -24 -15
-13 0 -26 -5 -28 -11 -2 -5 -11 -11 -19 -12 -9 -2 -24 -11 -33 -20 -10 -9 -22
-14 -28 -11 -7 4 -8 2 -4 -4 7 -11 -6 -17 -28 -13 -5 1 -6 -5 -2 -14 3 -9 1
-15 -7 -14 -6 1 -21 1 -32 0 -16 -1 -17 -3 -6 -10 11 -7 7 -10 -15 -13 -17 -2
-28 -8 -26 -15 1 -8 -8 -13 -23 -13 -14 0 -25 -4 -25 -8 0 -5 -10 -14 -22 -20
-15 -7 -17 -11 -8 -11 24 -2 -40 -31 -66 -31 -19 0 -24 -5 -25 -27 0 -16 -3
-22 -6 -15 -2 6 -9 12 -14 12 -6 0 -7 -4 -4 -10 3 -5 -1 -10 -9 -10 -9 0 -16
-7 -16 -15 0 -8 -7 -15 -15 -15 -8 0 -15 -5 -15 -11 0 -5 -4 -7 -10 -4 -5 3
-10 -3 -10 -14 0 -14 -6 -21 -19 -21 -11 0 -22 -6 -24 -12 -4 -10 -6 -10 -6 0
-1 10 -4 10 -16 -2 -8 -8 -15 -19 -15 -25 0 -6 -7 -11 -15 -11 -8 0 -15 -7
-15 -16 0 -8 -4 -12 -10 -9 -5 3 -10 -1 -10 -9 0 -9 -5 -16 -11 -16 -14 0 -39
-26 -39 -40 0 -7 -7 -10 -15 -6 -9 3 -15 0 -15 -9 0 -8 -4 -15 -10 -15 -5 0
-10 -6 -10 -14 0 -8 -7 -16 -15 -20 -8 -3 -15 -13 -15 -21 0 -19 -23 -45 -39
-45 -6 0 -11 -9 -11 -20 0 -11 -4 -20 -10 -20 -5 0 -10 -11 -10 -25 0 -18 -4
-23 -15 -18 -9 3 -15 2 -14 -3 4 -23 -2 -45 -11 -39 -9 5 -15 -24 -11 -49 1
-5 -5 -6 -14 -2 -9 3 -15 1 -14 -7 4 -35 -2 -58 -13 -51 -8 5 -7 0 2 -11 9
-11 10 -16 3 -11 -9 4 -14 1 -15 -11 0 -10 -2 -27 -3 -38 -1 -11 -3 -26 -4
-33 0 -7 -5 -10 -11 -7 -6 4 -10 -12 -10 -39 0 -25 -4 -46 -10 -46 -5 0 -10
-5 -10 -11 0 -5 6 -7 13 -3 10 6 10 4 0 -7 -7 -7 -13 -30 -13 -52 0 -28 3 -36
13 -31 8 5 7 2 -2 -10 -11 -13 -11 -20 -3 -28 7 -7 12 -22 12 -34 0 -12 7 -24
15 -28 8 -3 15 -9 14 -13 -4 -25 2 -43 13 -37 6 4 8 3 5 -4 -10 -15 3 -42 19
-42 8 0 14 -10 14 -26 0 -14 4 -23 10 -19 6 3 10 -3 10 -14 0 -12 5 -21 11
-21 11 0 40 -25 39 -35 -1 -25 2 -35 11 -35 5 0 7 5 3 12 -4 7 -3 8 4 4 7 -4
12 -16 12 -27 0 -10 5 -19 10 -19 6 0 10 -7 10 -15 0 -9 6 -12 17 -8 10 4 14
2 9 -5 -3 -6 -2 -13 4 -17 6 -4 7 -11 4 -17 -4 -7 -2 -8 4 -4 11 7 17 -6 13
-27 -1 -5 3 -6 9 -2 6 3 8 11 5 16 -4 5 -1 9 4 9 6 0 11 -9 11 -20 0 -11 7
-23 15 -26 8 -4 13 -10 10 -14 -3 -5 0 -12 6 -16 7 -4 9 -3 5 4 -3 6 -2 14 4
17 6 4 10 3 9 -2 -4 -22 2 -34 14 -27 7 5 7 2 -2 -10 -12 -15 -12 -17 0 -14 8
2 13 -2 12 -9 -2 -7 3 -10 10 -8 6 3 18 -8 26 -25 11 -26 15 -29 29 -18 12 10
14 10 8 1 -7 -12 5 -18 27 -14 5 1 6 -2 3 -7 -6 -9 29 -42 44 -42 6 0 9 -5 7
-11 -1 -6 9 -13 23 -15 14 -3 26 -9 28 -14 2 -6 17 -10 32 -10 16 0 33 -6 37
-14 4 -8 17 -16 28 -18 11 -1 22 -6 25 -10 3 -4 21 -8 39 -10 27 -2 30 -4 16
-14 -13 -10 -8 -12 26 -12 23 -1 46 -7 50 -14 7 -10 9 -10 9 2 0 10 3 11 8 3
4 -6 25 -13 47 -15 23 -3 39 -10 38 -16 -2 -7 10 -12 31 -12 19 0 37 -6 39
-12 4 -10 8 -9 16 2 9 13 11 13 11 0 0 -12 8 -15 35 -12 28 3 35 1 35 -13 0
-15 2 -16 17 -4 11 10 14 10 9 2 -5 -9 2 -13 26 -14 18 -1 36 -1 41 0 4 0 7
-4 7 -10 0 -8 6 -7 17 2 9 8 14 9 11 4 -4 -7 13 -12 45 -13 62 -3 89 -10 82
-23 -4 -5 18 -9 50 -9 42 0 54 -3 49 -12 -5 -9 -2 -9 9 1 11 9 17 10 17 2 0
-7 25 -11 69 -11 38 0 71 -5 73 -10 4 -13 36 -19 119 -21 41 -1 66 -6 63 -11
-4 -6 4 -5 16 2 17 9 21 9 15 0 -4 -7 -1 -11 6 -9 46 6 119 -3 133 -16 10 -11
36 -15 85 -15 41 0 71 -4 71 -10 0 -5 5 -10 11 -10 5 0 7 5 4 10 -3 6 -1 10 4
10 6 0 11 -4 11 -10 0 -6 26 -10 59 -10 36 0 61 -5 63 -12 4 -12 26 -16 101
-17 35 -1 46 -4 41 -13 -6 -10 -4 -10 7 0 15 14 33 17 25 4 -6 -9 56 -14 205
-15 70 -1 93 -4 83 -12 -11 -8 -9 -10 11 -11 14 -1 23 2 20 6 -3 5 -1 12 5 15
6 4 9 1 8 -6 -4 -17 52 -22 71 -6 12 9 13 9 7 0 -6 -10 21 -13 119 -13 75 0
124 4 120 9 -3 5 -1 13 5 16 6 4 9 1 8 -6 -2 -7 9 -14 25 -15 15 -2 27 2 27 9
0 8 3 8 8 2 9 -13 62 -15 62 -3 0 6 -7 7 -16 4 -8 -3 -13 -2 -9 3 8 14 65 7
77 -10 8 -11 9 -11 4 3 -4 15 2 17 43 17 27 -1 54 2 60 5 18 12 52 16 46 5 -4
-5 -1 -9 4 -9 6 0 11 5 11 10 0 6 22 10 49 10 34 0 51 5 55 15 3 9 18 14 41
13 21 -1 40 4 45 11 6 11 9 11 12 0 4 -12 8 -12 20 -1 9 7 30 14 47 15 37 2
38 5 9 17 -21 8 -20 9 9 7 17 0 39 5 49 13 16 13 17 13 9 0 -6 -12 -5 -13 6
-2 7 6 21 12 31 12 10 0 21 7 24 15 4 8 17 15 31 15 13 0 21 4 18 10 -4 6 7
10 24 10 17 0 31 5 31 11 0 6 6 17 14 25 11 10 15 11 19 1 2 -8 9 -7 21 6 10
9 21 15 26 12 5 -3 12 0 16 6 4 8 3 9 -4 5 -7 -4 -12 -5 -12 -2 0 7 61 36 77
36 16 0 17 17 1 23 -13 6 16 11 41 8 7 -2 10 2 6 8 -4 7 4 11 19 11 16 0 26 6
26 15 0 8 8 15 18 15 14 0 15 2 2 10 -13 8 -12 10 3 10 19 0 59 35 49 44 -3 3
7 6 21 6 18 0 27 5 27 16 0 10 6 14 15 10 9 -3 15 0 15 9 0 8 7 15 15 15 9 0
12 6 9 15 -5 11 -2 13 10 9 9 -3 16 -1 16 6 0 6 5 8 12 4 6 -4 9 -3 5 2 -3 5
2 18 10 29 16 20 16 20 9 0 -6 -19 -6 -19 9 -1 8 10 12 23 8 29 -3 6 -1 7 5 3
11 -6 16 5 13 26 0 4 6 5 14 2 8 -4 15 -1 15 6 0 6 4 8 10 5 6 -3 7 1 4 9 -3
9 -1 16 6 16 6 0 8 5 4 13 -5 8 -2 8 9 -2 15 -12 17 -11 17 6 0 11 10 28 22
39 12 10 18 13 14 6 -7 -11 -4 -11 13 0 12 7 16 15 11 16 -6 2 1 15 15 27 14
13 25 29 25 35 0 6 7 13 15 16 8 4 15 16 15 28 0 17 2 18 10 6 8 -12 10 -11
10 8 0 12 6 22 13 22 15 0 46 50 41 68 -1 7 0 8 3 2 2 -5 10 -10 16 -10 5 0 7
3 4 7 -4 3 0 17 9 31 9 13 11 21 5 18 -6 -4 -11 -5 -11 -1 0 3 11 10 25 15 20
7 25 17 25 42 0 24 3 29 9 19 7 -11 10 -7 13 15 2 17 8 28 16 26 8 -1 12 10
12 34 0 21 4 33 10 29 6 -4 10 6 10 24 0 23 4 29 15 25 10 -4 15 0 15 16 0 11
4 19 8 16 4 -2 9 4 9 15 1 12 -2 17 -10 12 -7 -3 -5 2 4 13 9 10 15 27 14 36
-2 10 2 21 7 25 6 3 8 1 4 -5 -3 -6 -3 -13 2 -16 4 -3 9 14 11 37 1 23 6 46
12 51 5 6 9 20 9 32 0 13 5 26 12 30 8 5 9 2 5 -10 -4 -9 -3 -15 1 -12 5 3 9
29 10 58 0 29 6 54 12 56 7 3 7 9 -2 20 -10 12 -10 14 0 8 9 -5 12 5 12 39 0
35 3 46 13 42 12 -5 18 23 20 103 0 8 5 18 11 22 8 5 7 8 -1 8 -7 0 -13 5 -13
11 0 5 4 8 8 5 5 -3 9 1 9 9 0 8 -5 15 -11 15 -6 0 -4 5 4 10 10 6 11 10 3 10
-7 0 -13 5 -13 11 0 5 5 7 10 4 10 -6 13 26 10 149 -1 54 1 66 12 60 10 -6 11
-5 1 7 -7 9 -12 61 -12 139 -1 68 -6 129 -11 134 -5 5 -5 17 1 29 7 11 7 17 1
13 -5 -3 -10 14 -11 42 -3 71 -4 72 -16 72 -6 0 -12 20 -14 48 -1 26 -6 49
-12 50 -5 2 -9 17 -9 33 0 17 -6 32 -15 35 -8 4 -15 12 -15 20 0 8 -5 14 -11
14 -8 0 -7 6 2 17 10 11 10 14 2 9 -9 -5 -13 0 -13 14 0 14 -5 20 -13 17 -9
-3 -14 6 -15 32 -2 20 -7 38 -12 39 -6 2 -10 11 -10 19 0 13 -3 13 -15 3 -13
-11 -15 -8 -15 14 0 15 -4 25 -9 21 -5 -3 -11 7 -13 22 -2 16 -8 27 -15 26 -7
-2 -13 4 -13 13 0 9 -5 12 -12 8 -8 -5 -9 -2 -5 9 5 13 1 17 -14 17 -11 0 -17
5 -14 10 3 6 -1 10 -11 10 -14 0 -14 3 -4 16 8 8 9 14 4 13 -24 -4 -44 2 -41
14 1 6 -4 11 -10 10 -7 -2 -13 4 -13 12 0 8 -7 15 -15 15 -8 0 -15 4 -15 9 0
5 -12 11 -27 13 -16 2 -27 8 -26 16 2 7 -8 12 -25 12 -21 0 -24 2 -12 10 11 7
7 10 -18 10 -20 0 -35 6 -38 15 -4 8 -16 15 -28 15 -12 0 -28 6 -35 13 -11 10
-12 9 -6 -3 6 -12 5 -13 -6 -2 -7 6 -23 12 -36 12 -15 0 -23 6 -23 17 0 15 -2
14 -15 -3 -13 -16 -14 -16 -9 -1 5 15 0 17 -41 17 -25 0 -44 3 -42 8 3 4 -16
9 -41 10 -26 2 -58 5 -72 7 -14 2 -29 3 -33 4 -5 1 -6 5 -3 9 8 14 -75 14 -92
0 -12 -10 -14 -10 -8 0 4 7 2 12 -6 12 -8 0 -20 -6 -27 -12 -11 -11 -12 -10
-7 0 6 10 -10 12 -72 11 -56 -1 -79 -5 -76 -13 3 -7 -6 -13 -21 -14 -14 -1
-25 3 -25 8 0 5 7 7 15 4 8 -4 15 -2 15 3 0 14 -31 12 -36 -2z m321 -13 c-3
-3 -11 0 -18 7 -9 10 -8 11 6 5 10 -3 15 -9 12 -12z m875 -596 c0 -3 -4 -8
-10 -11 -5 -3 -10 -1 -10 4 0 6 5 11 10 11 6 0 10 -2 10 -4z m48 -191 c-3 -3
-9 2 -12 12 -6 14 -5 15 5 6 7 -7 10 -15 7 -18z m-3388 -2335 c0 -5 -5 -10
-11 -10 -5 0 -7 5 -4 10 3 6 8 10 11 10 2 0 4 -4 4 -10z m620 -104 c-7 -7 -14
-6 -21 1 -9 9 -7 12 9 10 14 -1 18 -5 12 -11z m500 -40 c0 -3 -4 -8 -10 -11
-5 -3 -10 -1 -10 4 0 6 5 11 10 11 6 0 10 -2 10 -4z"/>
<path d="M9055 6690 c3 -5 8 -10 11 -10 2 0 4 5 4 10 0 6 -5 10 -11 10 -5 0
-7 -4 -4 -10z"/>
<path d="M9155 6460 c3 -5 8 -10 11 -10 2 0 4 5 4 10 0 6 -5 10 -11 10 -5 0
-7 -4 -4 -10z"/>
<path d="M10070 6335 c0 -8 4 -15 10 -15 5 0 7 7 4 15 -4 8 -8 15 -10 15 -2 0
-4 -7 -4 -15z"/>
<path d="M9155 6250 c3 -5 8 -10 11 -10 2 0 4 5 4 10 0 6 -5 10 -11 10 -5 0
-7 -4 -4 -10z"/>
<path d="M10070 5999 c0 -5 5 -7 10 -4 6 3 10 8 10 11 0 2 -4 4 -10 4 -5 0
-10 -5 -10 -11z"/>
<path d="M9050 5849 c0 -5 5 -7 10 -4 6 3 10 8 10 11 0 2 -4 4 -10 4 -5 0 -10
-5 -10 -11z"/>
<path d="M16299 5531 c-1 -3 -1 -9 0 -13 0 -5 -10 -8 -24 -8 -14 0 -25 -4 -25
-10 0 -5 -12 -10 -26 -10 -14 0 -23 -4 -19 -10 3 -6 -1 -13 -9 -16 -10 -4 -16
-19 -17 -38 0 -28 -1 -29 -9 -8 -10 24 -18 29 -17 10 1 -36 -4 -49 -15 -42 -9
5 -9 2 1 -9 9 -11 10 -17 2 -17 -6 0 -11 -9 -11 -19 0 -10 -7 -21 -15 -25 -8
-3 -15 -16 -15 -30 0 -13 -4 -26 -9 -28 -6 -1 -11 -22 -12 -46 -2 -24 -6 -45
-10 -48 -5 -2 -6 5 -4 16 2 11 0 18 -6 15 -5 -4 -9 -17 -9 -30 0 -13 -6 -26
-12 -28 -10 -4 -9 -8 2 -16 10 -7 11 -11 3 -11 -7 0 -13 -12 -13 -26 0 -18 -4
-24 -14 -21 -9 4 -13 -3 -14 -21 0 -15 -7 -40 -16 -56 -8 -16 -12 -34 -9 -39
4 -6 -1 -8 -10 -4 -13 5 -17 1 -17 -19 0 -15 -4 -23 -10 -19 -6 4 -10 3 -9 -2
5 -31 -3 -63 -16 -63 -10 0 -15 -10 -15 -27 0 -23 -2 -25 -11 -13 -9 12 -10
10 -6 -8 7 -30 -1 -52 -19 -52 -9 0 -14 -11 -14 -31 0 -21 -4 -28 -12 -23 -9
5 -9 2 1 -9 9 -11 10 -17 2 -17 -6 0 -11 -9 -11 -19 0 -11 -4 -23 -10 -26 -6
-4 -7 1 -4 12 6 16 5 15 -9 -2 -8 -11 -13 -27 -12 -37 2 -10 0 -20 -6 -23 -5
-4 -9 -21 -10 -38 0 -29 -1 -30 -9 -9 -10 24 -18 29 -17 10 2 -52 -4 -70 -19
-64 -13 5 -15 2 -11 -14 3 -11 -1 -27 -9 -34 -8 -8 -14 -26 -14 -40 0 -19 -4
-24 -15 -19 -9 3 -15 2 -14 -3 4 -25 -2 -54 -11 -49 -6 4 -10 -5 -10 -19 0
-16 -6 -26 -15 -26 -9 0 -15 -9 -15 -24 0 -14 -4 -28 -10 -31 -5 -3 -10 -15
-10 -26 0 -10 -7 -19 -15 -19 -9 0 -15 -9 -15 -25 0 -14 -4 -25 -10 -25 -5 0
-10 -11 -10 -25 0 -16 -6 -25 -15 -25 -9 0 -15 -10 -15 -26 0 -14 -4 -23 -10
-19 -6 4 -10 -5 -10 -20 0 -14 -7 -28 -15 -31 -8 -4 -15 -17 -15 -31 0 -13 -4
-21 -10 -18 -5 3 -10 -3 -10 -14 0 -12 -7 -21 -16 -21 -8 0 -13 -4 -10 -9 3
-5 -1 -11 -9 -15 -8 -3 -15 -14 -15 -25 0 -28 -11 -52 -21 -45 -5 3 -9 -2 -9
-11 0 -9 -4 -13 -10 -10 -6 3 -10 -5 -10 -19 0 -17 -4 -24 -13 -20 -8 2 -13
-4 -14 -16 -2 -22 -25 -50 -42 -50 -6 0 -11 -7 -11 -15 0 -8 -4 -15 -10 -15
-5 0 -10 -6 -10 -13 0 -7 -11 -24 -25 -39 -14 -15 -25 -32 -25 -38 0 -5 -5
-10 -11 -10 -16 0 -40 -28 -42 -49 -1 -15 -4 -17 -14 -9 -10 8 -12 7 -7 -6 4
-10 1 -16 -8 -16 -7 0 -19 -9 -26 -21 -11 -17 -11 -20 0 -14 7 3 4 0 -6 -9
-10 -8 -22 -14 -25 -11 -6 3 -10 -12 -13 -52 -1 -10 -4 -10 -17 0 -11 9 -13 9
-8 0 5 -7 -1 -21 -12 -32 -11 -11 -16 -23 -13 -27 4 -4 -1 -4 -10 -1 -13 5
-18 1 -18 -13 0 -11 -7 -20 -15 -20 -8 0 -14 -3 -13 -7 2 -5 -1 -9 -7 -11 -5
-2 -13 -12 -18 -24 -4 -11 -16 -22 -28 -25 -12 -3 -18 -11 -15 -19 3 -8 1 -14
-5 -14 -5 0 -20 -9 -32 -21 -19 -18 -20 -19 -3 -13 19 7 19 7 0 -13 -10 -11
-23 -20 -29 -19 -5 1 -9 -7 -7 -16 2 -10 -2 -18 -8 -18 -14 0 -40 -25 -40 -39
0 -6 -7 -11 -15 -11 -8 0 -15 -4 -15 -10 0 -5 -7 -10 -15 -10 -8 0 -15 -9 -15
-21 0 -11 -4 -18 -9 -15 -5 3 -12 -1 -15 -10 -3 -8 -10 -12 -16 -9 -5 3 -10
-3 -10 -15 0 -12 -4 -18 -10 -15 -5 3 -10 1 -10 -4 0 -6 -11 -11 -24 -11 -15
0 -26 -7 -29 -20 -3 -13 -10 -18 -21 -14 -12 5 -15 2 -9 -12 4 -12 3 -15 -5
-10 -7 4 -12 1 -12 -8 0 -9 -7 -16 -15 -16 -8 0 -15 -4 -15 -10 0 -5 -7 -10
-15 -10 -9 0 -12 -6 -8 -17 5 -12 2 -15 -10 -10 -11 4 -17 1 -17 -9 0 -8 -4
-12 -10 -9 -5 3 -10 -1 -10 -9 0 -18 -34 -39 -45 -28 -3 4 -6 2 -5 -3 1 -6 2
-15 1 -21 -1 -14 -50 -47 -68 -47 -7 0 -13 -6 -13 -14 0 -7 -7 -13 -16 -13 -8
0 -12 -5 -9 -10 3 -5 2 -10 -4 -10 -5 0 -12 6 -14 13 -3 7 -6 4 -6 -6 -1 -10
-5 -15 -11 -12 -5 3 -10 -3 -10 -15 0 -12 -5 -18 -10 -15 -6 3 -17 -1 -26 -10
-9 -9 -23 -14 -31 -11 -8 4 -11 1 -8 -5 4 -6 14 -8 22 -5 8 4 11 2 7 -5 -3 -6
-17 -9 -30 -6 -16 3 -24 0 -24 -9 0 -8 -7 -14 -15 -14 -8 0 -15 -5 -15 -11 0
-11 -25 -40 -35 -39 -22 1 -38 -2 -27 -7 21 -8 13 -23 -13 -23 -16 0 -25 -6
-25 -15 0 -8 -7 -15 -16 -15 -8 0 -12 -4 -9 -10 3 -5 2 -10 -4 -10 -5 0 -11 5
-13 10 -2 6 -9 1 -16 -11 -10 -15 -10 -19 -1 -14 8 5 10 4 5 -3 -4 -7 -16 -12
-27 -12 -10 0 -19 -4 -19 -10 0 -5 -15 -10 -32 -11 -30 0 -31 -1 -10 -9 12 -5
22 -12 22 -14 0 -3 -6 -3 -13 0 -8 3 -20 -2 -27 -11 -7 -8 -21 -15 -31 -15
-10 0 -21 -5 -25 -12 -4 -7 -3 -8 4 -4 7 4 12 2 12 -3 0 -6 -11 -11 -25 -11
-14 0 -25 -4 -25 -10 0 -5 -7 -10 -15 -10 -8 0 -12 -6 -9 -14 3 -9 -1 -13 -13
-13 -10 1 -17 -3 -16 -9 2 -11 -3 -12 -54 -15 -16 -1 -22 -4 -15 -6 6 -3 12
-9 12 -14 0 -6 -4 -8 -9 -4 -5 3 -16 -2 -24 -10 -9 -8 -23 -15 -31 -15 -19 0
-21 -16 -3 -23 6 -3 -3 -6 -20 -6 -18 -1 -33 -5 -33 -11 0 -5 -7 -10 -15 -10
-9 0 -12 -6 -9 -15 5 -11 -1 -15 -20 -15 -14 0 -26 -4 -26 -10 0 -5 -11 -10
-25 -10 -14 0 -25 -5 -25 -11 0 -5 5 -7 12 -3 7 4 8 3 4 -5 -4 -7 -17 -11 -29
-9 -13 2 -21 -2 -20 -9 1 -6 -5 -10 -15 -8 -20 3 -44 -14 -36 -26 3 -5 -4 -9
-16 -9 -23 0 -43 -16 -53 -40 -4 -12 -6 -11 -6 3 -1 15 -5 14 -25 -8 -13 -14
-28 -25 -32 -24 -22 4 -34 -2 -34 -16 0 -9 -9 -15 -25 -15 -14 0 -25 -6 -25
-12 0 -9 -4 -8 -10 2 -6 10 -10 11 -10 3 0 -7 -6 -13 -14 -13 -8 0 -18 -4 -21
-10 -4 -6 1 -7 12 -4 15 5 16 4 3 -5 -8 -6 -25 -11 -38 -11 -13 0 -20 -4 -17
-10 4 -6 -7 -10 -24 -10 -21 0 -31 -5 -31 -15 0 -9 -9 -15 -25 -15 -14 0 -25
-4 -25 -10 0 -5 -3 -9 -7 -9 -25 4 -43 -3 -43 -17 0 -8 -5 -12 -10 -9 -6 4 -7
11 -4 17 4 7 2 8 -5 4 -6 -4 -9 -12 -6 -17 4 -5 -4 -9 -17 -9 -13 0 -31 -7
-41 -14 -9 -7 -28 -12 -42 -11 -14 2 -25 -1 -25 -7 0 -6 7 -8 15 -5 8 4 16 3
19 -1 3 -4 -10 -9 -27 -10 -18 -2 -33 -7 -35 -12 -2 -6 -21 -10 -42 -10 -21 0
-42 -5 -46 -11 -4 -8 1 -9 17 -4 19 5 21 4 9 -4 -8 -6 -27 -11 -42 -11 -14 0
-28 -4 -30 -10 -1 -5 -18 -10 -36 -12 -22 -1 -31 -7 -28 -15 4 -9 -4 -13 -22
-13 -16 0 -34 -6 -41 -13 -11 -10 -12 -9 -6 1 5 11 3 11 -11 3 -11 -5 -32 -13
-48 -16 -23 -5 -27 -8 -15 -16 11 -6 8 -9 -12 -9 -14 0 -31 -6 -38 -13 -11 -9
-14 -9 -18 1 -3 6 -9 12 -14 12 -6 0 -7 -4 -4 -10 5 -9 -22 -14 -63 -13 -10 1
-10 -2 -1 -14 7 -8 8 -13 3 -12 -5 1 -24 1 -42 0 -24 -1 -31 -5 -26 -13 5 -8
0 -7 -11 2 -11 9 -16 10 -11 2 5 -9 -4 -12 -33 -12 -28 0 -41 -4 -41 -13 0 -8
-6 -14 -12 -15 -7 0 -28 -2 -46 -3 -18 -1 -35 -6 -38 -10 -3 -5 3 -6 13 -3 15
5 16 4 3 -5 -8 -6 -30 -11 -48 -11 -18 0 -31 -3 -29 -8 3 -4 -14 -8 -36 -10
-60 -4 -75 -7 -84 -17 -4 -4 -2 -5 5 -1 6 4 12 2 12 -3 0 -6 -15 -11 -34 -11
-19 0 -38 -4 -41 -10 -3 -5 -27 -10 -53 -10 -26 0 -54 -5 -62 -11 -13 -9 -12
-10 3 -5 9 3 17 1 17 -4 0 -8 -93 -16 -123 -11 -5 1 -6 -3 -2 -9 4 -6 -12 -10
-44 -10 -35 0 -53 -5 -59 -16 -6 -11 -23 -16 -55 -16 -26 0 -47 -4 -47 -10 0
-6 -7 -4 -17 3 -9 8 -14 9 -10 3 4 -7 -7 -11 -30 -12 -19 -1 -42 -7 -50 -14
-9 -7 -38 -14 -66 -15 -28 -2 -54 -8 -58 -14 -4 -8 -8 -7 -11 2 -4 12 -7 12
-21 0 -14 -11 -17 -11 -17 0 0 11 -2 11 -8 2 -4 -7 -33 -13 -64 -14 -31 -1
-63 -6 -70 -11 -9 -6 -4 -7 12 -3 19 5 22 4 10 -4 -8 -6 -45 -11 -82 -11 -38
0 -68 -3 -68 -8 0 -4 -28 -8 -61 -9 -42 -2 -68 -8 -83 -20 -16 -14 -18 -14 -8
-2 11 15 9 17 -17 15 -16 0 -27 -4 -24 -9 2 -4 9 -5 14 -2 5 4 9 1 9 -5 0 -15
-32 -8 -48 10 -12 13 -13 13 -8 -3 5 -15 -2 -17 -62 -17 -47 0 -63 -3 -52 -10
9 -6 10 -10 3 -10 -6 0 -15 5 -18 10 -4 6 -13 7 -24 1 -9 -5 -52 -11 -94 -13
-42 -1 -77 -6 -77 -11 0 -5 7 -6 16 -3 8 3 12 2 9 -4 -5 -8 -64 -12 -175 -11
-19 1 -22 -1 -10 -9 12 -7 10 -9 -7 -7 -12 0 -19 5 -17 9 3 4 0 8 -5 8 -6 0
-11 -4 -11 -8 0 -7 -36 -10 -228 -15 -20 -1 -31 -6 -28 -13 3 -8 -21 -12 -82
-13 -50 -1 -92 -7 -101 -14 -12 -9 -13 -9 -7 1 4 7 1 12 -9 12 -10 0 -13 -5
-9 -12 6 -10 5 -10 -7 -1 -12 10 -18 10 -28 0 -9 -9 -14 -9 -21 3 -5 8 -10 10
-10 4 0 -6 -6 -11 -12 -11 -7 -1 -47 -2 -89 -4 -50 -2 -76 -6 -73 -13 3 -7 -9
-12 -26 -12 -16 -1 -30 3 -30 10 0 7 -3 7 -8 -1 -5 -9 -37 -13 -91 -14 -48 -1
-77 -6 -69 -10 9 -6 6 -9 -10 -9 -16 0 -21 4 -16 13 6 10 4 10 -7 0 -7 -8 -39
-13 -72 -13 -33 0 -56 -4 -52 -9 3 -5 1 -13 -5 -16 -6 -4 -9 -1 -8 6 2 9 -11
13 -40 14 -30 1 -39 -1 -28 -7 9 -5 21 -6 26 -3 6 3 10 2 10 -3 0 -9 -88 -16
-158 -13 -13 0 -20 -4 -17 -9 3 -6 1 -10 -4 -10 -6 0 -11 6 -11 13 0 8 -3 9
-8 1 -4 -6 -25 -11 -46 -12 -45 -2 -57 -9 -36 -23 11 -7 8 -8 -12 -5 -15 3
-33 8 -39 12 -8 4 -9 3 -5 -4 7 -11 -26 -18 -63 -13 -7 2 -10 -2 -6 -8 5 -10
-60 -17 -102 -12 -6 1 -15 -4 -19 -10 -4 -8 -3 -9 4 -5 7 4 12 2 12 -3 0 -6
-16 -11 -35 -11 -21 0 -35 -5 -35 -12 0 -9 -4 -8 -10 2 -5 8 -10 10 -10 4 0
-7 -9 -14 -21 -17 -12 -3 -18 -10 -14 -16 3 -6 -1 -11 -10 -11 -21 0 -67 -35
-58 -44 3 -3 -1 -6 -10 -6 -11 0 -17 -8 -17 -25 0 -14 -6 -25 -13 -25 -17 0
-40 -41 -40 -72 1 -50 3 -59 15 -52 7 5 9 2 5 -9 -3 -9 1 -21 11 -29 11 -9 14
-10 8 -1 -4 7 -2 13 3 13 6 0 11 -10 11 -22 0 -19 2 -20 10 -8 8 12 10 11 10
-7 0 -12 5 -25 12 -29 7 -4 8 -3 4 4 -10 16 2 15 19 -2 8 -7 11 -17 7 -20 -3
-4 4 -9 16 -13 12 -3 22 -9 22 -14 0 -5 13 -9 30 -9 20 0 28 -4 24 -13 -4 -12
6 -15 54 -19 6 -1 12 -7 12 -15 0 -9 17 -13 64 -13 42 0 66 -4 69 -12 4 -10 8
-9 16 2 7 10 11 11 11 3 0 -9 18 -13 55 -13 30 0 55 -4 55 -9 0 -5 -10 -7 -22
-4 -13 3 -20 3 -16 -1 3 -4 33 -10 65 -13 32 -3 60 -9 61 -14 2 -5 8 -9 13 -9
6 0 8 4 5 8 -6 10 30 9 40 -1 4 -4 25 -7 46 -7 29 0 37 -3 32 -12 -5 -9 -2 -8
10 1 14 12 19 12 29 1 9 -9 9 -11 0 -6 -6 3 -14 3 -17 -2 -2 -4 32 -9 77 -11
45 -1 84 -7 85 -12 2 -5 39 -9 83 -9 70 0 78 -2 73 -17 -5 -15 -4 -16 5 -3 10
15 74 23 65 9 -2 -4 -13 -6 -24 -4 -11 2 -22 1 -24 -3 -2 -4 14 -8 37 -8 116
-3 185 -9 181 -16 -8 -13 11 -9 25 5 9 7 11 8 7 0 -4 -7 9 -11 42 -12 86 -3
107 -5 114 -15 8 -12 40 -17 32 -5 -3 5 -10 7 -15 4 -5 -4 -9 -2 -9 3 0 5 11
10 24 10 15 0 23 -5 20 -13 -3 -7 5 -12 23 -12 15 0 92 -1 171 -2 79 0 141 -5
138 -9 -3 -5 1 -9 9 -9 8 0 12 4 9 9 -3 4 5 8 18 8 19 0 20 -2 8 -11 -12 -9
-11 -10 5 -4 52 18 51 18 35 6 -13 -9 -13 -11 2 -11 9 0 19 6 21 13 4 9 6 9 6
0 1 -7 8 -13 17 -13 9 0 12 5 8 13 -6 9 -5 9 8 -1 22 -18 884 -18 906 0 9 7
13 8 9 2 -4 -7 5 -11 23 -11 18 0 27 4 23 11 -4 6 0 5 9 -2 13 -10 17 -10 21
0 4 11 6 11 6 0 1 -10 6 -10 22 -1 12 6 19 7 16 2 -4 -5 0 -10 8 -10 8 0 12 4
9 9 -3 4 -1 8 5 8 5 0 12 -6 14 -12 4 -10 6 -10 6 0 1 6 9 12 19 12 14 0 15
-2 2 -10 -12 -7 -10 -9 7 -7 12 0 19 5 17 9 -3 4 4 8 15 8 12 0 21 -6 21 -12
0 -9 3 -9 9 1 8 13 12 13 27 0 11 -9 15 -9 10 -2 -6 10 20 13 113 13 85 0 120
3 119 11 -2 6 4 14 12 16 13 4 13 3 0 -6 -18 -13 -18 -13 42 -15 26 -1 45 1
42 5 -2 4 -13 6 -23 4 -10 -2 -23 0 -29 4 -6 4 18 7 53 7 35 0 62 -3 59 -7 -2
-4 0 -11 6 -14 6 -4 9 -1 8 7 -2 10 20 14 96 16 59 2 106 8 115 15 12 9 13 9
7 0 -4 -7 -3 -13 3 -13 5 0 13 5 16 10 3 6 12 10 18 10 7 0 6 -4 -3 -10 -12
-7 -10 -9 7 -7 12 0 19 5 17 9 -3 4 4 8 16 8 14 0 19 -4 14 -12 -6 -10 -4 -10
7 -2 8 6 21 12 29 12 8 0 41 1 72 2 32 1 56 6 53 10 -3 5 -1 12 5 15 6 4 9 1
8 -6 -2 -6 3 -14 11 -17 8 -2 11 0 7 6 -3 6 -1 14 5 18 7 4 9 3 5 -4 -3 -6 -2
-13 4 -17 5 -3 10 1 10 9 0 9 5 16 11 16 6 0 9 -6 6 -14 -4 -9 2 -12 21 -10
15 1 28 8 30 13 2 6 8 11 14 11 6 0 7 -8 4 -17 -6 -17 -5 -17 8 0 10 13 28 17
83 17 41 0 74 5 82 12 11 10 13 10 7 1 -4 -7 -2 -13 3 -13 6 0 11 5 11 11 0 8
6 7 17 -2 11 -10 14 -10 9 -1 -7 11 17 13 202 15 12 0 22 5 22 11 0 7 27 12
71 13 40 1 78 8 87 15 12 10 14 10 8 1 -9 -17 6 -17 23 -1 11 11 12 10 6 -2
-6 -12 -5 -13 6 -3 17 17 32 17 23 1 -6 -10 -4 -10 7 -2 8 6 21 12 29 12 48 2
113 12 118 18 4 4 -3 4 -15 1 -13 -3 -25 -2 -27 2 -3 4 27 8 67 9 39 1 74 7
78 13 4 8 8 7 12 -2 4 -10 6 -10 6 -1 1 8 20 12 61 12 45 0 62 4 66 15 5 11
21 15 59 15 30 0 57 5 61 12 5 8 2 9 -10 5 -10 -4 -15 -3 -11 3 3 6 25 10 48
10 46 -1 66 2 83 13 6 3 34 7 63 8 49 2 65 12 39 22 -7 3 6 6 30 6 24 1 42 6
42 12 0 8 6 7 17 -2 11 -10 14 -10 9 -1 -5 9 4 12 34 12 23 0 39 4 35 9 -3 5
0 13 6 17 7 4 9 3 6 -3 -4 -6 0 -14 9 -17 12 -4 15 -2 10 9 -4 12 2 15 29 15
19 0 35 5 35 11 0 8 6 7 17 -2 11 -10 14 -10 9 -2 -5 9 2 13 24 13 19 0 33 6
37 16 5 13 7 13 14 2 7 -10 9 -10 9 0 0 6 9 12 21 12 11 0 18 3 16 7 -5 7 22
13 76 16 16 1 16 3 3 13 -13 9 -9 11 21 12 20 1 40 7 44 13 5 8 8 7 12 -2 4
-10 6 -10 6 -1 1 6 12 12 26 12 14 0 24 5 22 11 -1 6 16 13 38 16 22 2 42 8
43 13 2 6 15 10 28 10 15 0 24 6 24 15 0 13 31 21 63 16 4 0 7 4 7 9 0 6 12
10 26 10 19 0 25 4 20 15 -4 12 3 15 30 15 21 0 33 4 29 10 -5 9 15 15 38 11
4 0 7 6 7 15 0 10 6 14 15 11 8 -4 17 -2 20 3 3 5 13 6 22 3 11 -4 14 -3 9 5
-5 8 1 12 18 12 15 0 25 5 23 12 -1 7 9 14 23 16 14 2 28 8 31 14 3 5 15 10
27 11 11 0 19 4 17 7 -2 4 5 14 15 23 14 11 20 12 24 4 5 -9 7 -9 12 1 3 6 17
12 30 12 25 0 33 15 12 23 -7 3 -3 6 10 6 12 1 22 6 22 11 0 6 13 10 30 10 22
0 28 4 24 15 -4 9 0 15 10 15 9 0 16 6 16 13 0 8 4 7 10 -3 5 -8 10 -10 10 -4
0 7 12 15 27 19 21 5 24 8 12 16 -11 7 -10 9 6 9 22 1 55 22 55 36 0 6 10 10
22 11 11 1 24 7 28 13 4 6 16 12 28 13 14 1 18 5 12 12 -11 13 20 33 57 38 12
2 26 7 30 12 5 4 2 5 -6 0 -9 -5 -12 -4 -7 3 4 7 14 12 22 12 8 0 14 5 14 10
0 6 7 10 15 10 8 0 15 5 15 11 0 17 28 40 50 42 12 1 18 6 16 14 -3 7 2 13 10
13 18 0 44 23 44 39 0 6 7 11 15 11 8 0 15 4 15 10 0 5 6 9 13 7 6 -1 11 6 9
15 -2 12 2 16 13 12 10 -4 15 0 15 12 0 16 2 17 10 4 8 -13 10 -12 10 4 0 12
5 16 15 12 8 -3 15 -1 15 4 0 5 -8 11 -17 13 -12 3 -9 5 8 6 15 0 29 8 33 16
3 8 13 15 21 15 10 0 13 5 9 12 -5 8 0 7 11 -2 11 -9 16 -10 11 -2 -4 7 -2 12
4 12 7 0 9 7 6 17 -4 10 -4 14 0 10 4 -4 13 1 21 11 8 9 12 11 8 4 -9 -17 3
-15 21 3 12 12 12 15 2 16 -7 0 -2 6 12 12 34 16 52 35 45 47 -3 5 1 10 10 10
19 0 45 23 45 39 0 6 5 11 11 11 12 0 89 80 89 92 0 4 5 8 11 8 16 0 41 29 34
40 -3 5 1 10 10 10 22 0 46 25 48 49 1 14 5 17 13 10 9 -7 16 -1 25 20 8 19
18 27 28 23 9 -3 12 -1 7 6 -4 7 -1 15 8 18 9 3 16 15 16 25 0 10 5 19 11 19
5 0 7 -6 4 -12 -4 -7 0 -5 8 4 8 10 18 14 23 10 4 -4 2 1 -6 11 -11 16 -11 18
1 15 8 -2 13 3 12 10 -2 6 4 12 12 12 10 0 15 10 15 28 0 21 2 24 10 12 7 -12
10 -8 10 15 1 29 1 29 17 10 12 -15 14 -16 10 -3 -3 9 1 22 9 28 8 7 14 19 14
26 0 8 6 13 13 11 7 -1 13 10 15 26 2 15 8 27 13 27 5 0 9 7 9 15 0 8 6 12 13
9 12 -4 45 60 40 78 -2 4 4 5 12 2 10 -4 15 0 15 10 0 23 30 67 41 60 5 -3 9
9 9 26 0 18 4 29 10 25 9 -5 15 23 11 48 0 4 6 7 14 7 8 0 15 7 15 16 0 9 5
12 13 8 7 -5 6 0 -3 11 -9 11 -10 16 -2 11 11 -6 18 18 13 47 -1 5 3 6 9 2 6
-3 7 -11 4 -17 -5 -7 -2 -8 5 -4 7 5 10 11 7 14 -4 3 0 15 8 28 8 12 17 33 18
47 2 15 15 35 27 47 13 11 19 20 13 20 -7 0 -12 5 -12 11 0 5 5 7 10 4 6 -4
10 6 10 24 0 16 5 33 12 37 7 5 8 2 3 -7 -4 -8 1 -5 12 6 14 14 17 23 9 28 -8
6 -7 10 2 14 6 2 12 20 12 39 0 20 4 33 9 29 13 -7 20 6 23 44 1 18 7 35 12
38 5 3 6 1 2 -5 -3 -6 -3 -13 2 -16 9 -5 11 6 13 56 0 15 5 30 10 33 5 4 9 21
10 38 0 25 2 28 8 13 7 -18 8 -18 14 -2 4 10 7 36 7 57 0 25 4 38 10 34 6 -4
10 -3 9 2 -1 4 -1 22 0 40 1 26 4 31 19 26 16 -5 16 -5 0 8 -17 13 -19 41 -5
55 3 4 5 -3 2 -14 -2 -12 0 -24 4 -26 4 -3 9 20 10 52 1 31 6 61 11 68 6 6 11
38 12 72 1 34 6 56 10 50 3 -7 4 -16 1 -22 -3 -5 -2 -6 4 -3 5 3 10 34 11 68
0 40 5 65 14 70 7 5 8 9 3 9 -6 0 -11 9 -11 19 0 11 4 17 8 15 13 -8 9 11 -4
25 -10 11 -10 13 0 7 9 -5 12 10 12 64 0 45 4 69 10 65 6 -3 10 -1 10 4 0 6
-4 11 -9 11 -6 0 -9 9 -8 19 0 11 5 17 9 15 5 -3 6 -10 3 -15 -4 -5 -2 -9 4
-9 6 0 9 105 9 284 1 243 -2 284 -14 279 -17 -6 -18 8 -1 26 10 11 10 13 0 7
-10 -5 -13 6 -14 41 -1 26 -1 51 0 56 0 4 -4 7 -9 7 -5 0 -10 5 -10 11 0 5 5
7 10 4 6 -3 10 -1 10 4 0 6 -4 11 -8 11 -7 0 -12 34 -15 107 0 7 -4 10 -9 7
-4 -3 -6 -16 -4 -30 3 -13 2 -22 -2 -20 -4 2 -9 37 -10 77 -2 41 -7 76 -12 79
-5 3 -11 21 -12 39 -1 18 -8 36 -15 38 -7 3 -13 20 -13 39 0 19 -4 34 -10 34
-5 0 -10 18 -10 40 0 29 -4 40 -15 40 -8 0 -15 7 -15 16 0 9 -5 12 -12 8 -9
-5 -9 -2 1 9 7 9 9 17 4 17 -5 0 -9 10 -10 23 -1 12 -11 29 -21 37 -10 9 -17
21 -14 28 2 6 -3 12 -10 12 -8 0 -14 10 -15 22 -1 11 -8 25 -15 29 -7 5 -9 9
-4 9 5 0 3 6 -3 13 -6 8 -8 17 -4 20 3 4 -1 7 -10 7 -11 0 -17 8 -17 25 0 14
-4 25 -10 25 -5 0 -10 7 -10 15 0 9 -6 12 -15 9 -14 -6 -20 11 -16 39 0 4 -3
7 -9 7 -5 0 -10 6 -10 13 0 8 -11 20 -25 27 -14 7 -25 17 -25 22 0 5 5 6 12 2
7 -4 8 -3 4 4 -4 7 -14 12 -22 12 -8 0 -14 5 -14 10 0 6 -7 10 -16 10 -8 0
-12 5 -9 10 3 6 -2 13 -12 16 -10 3 -27 10 -38 15 -11 6 -37 11 -57 12 -20 1
-34 5 -32 9 2 3 15 5 29 3 14 -1 23 0 20 4 -11 11 -110 9 -124 -3 -11 -8 -13
-8 -7 2 4 6 2 12 -3 12 -6 0 -11 -8 -12 -17 0 -15 -2 -15 -7 -3 -7 15 -41 24
-43 11z m26 -19 c-3 -3 -11 0 -18 7 -9 10 -8 11 6 5 10 -3 15 -9 12 -12z m519
-428 c3 -8 2 -12 -4 -9 -6 3 -10 10 -10 16 0 14 7 11 14 -7z m56 -114 c0 -5
-2 -10 -4 -10 -3 0 -8 5 -11 10 -3 6 -1 10 4 10 6 0 11 -4 11 -10z m145 -619
c3 -5 2 -12 -3 -15 -5 -3 -9 1 -9 9 0 17 3 19 12 6z m2 -486 c0 -8 -4 -12 -9
-9 -5 3 -6 10 -3 15 9 13 12 11 12 -6z m-7277 -2914 c0 -3 -13 -7 -30 -7 -16
-1 -30 1 -30 5 0 3 14 7 30 7 17 1 30 -1 30 -5z m-1426 -669 c3 -5 -1 -9 -9
-9 -8 0 -12 4 -9 9 3 4 7 8 9 8 2 0 6 -4 9 -8z m5031 -2 c-3 -5 -12 -10 -18
-10 -7 0 -6 4 3 10 19 12 23 12 15 0z m-631 -102 c-3 -4 -11 -5 -19 -1 -21 7
-19 12 4 10 11 0 18 -5 15 -9z m-454 -44 c0 -8 -19 -13 -24 -6 -3 5 1 9 9 9 8
0 15 -2 15 -3z m-2620 -48 c0 -2 -7 -7 -16 -10 -8 -3 -12 -2 -9 4 6 10 25 14
25 6z"/>
<path d="M10666 5368 c3 -4 9 -8 15 -8 5 0 9 4 9 8 0 5 -7 9 -15 9 -8 0 -12
-4 -9 -9z"/>
<path d="M10950 5268 c0 -4 4 -8 9 -8 6 0 12 4 15 8 3 5 -1 9 -9 9 -8 0 -15
-4 -15 -9z"/>
<path d="M5796 5121 c-3 -4 6 -7 19 -7 14 0 22 2 19 5 -8 8 -34 10 -38 2z"/>
<path d="M6515 5070 c-3 -5 -1 -10 4 -10 6 0 11 5 11 10 0 6 -2 10 -4 10 -3 0
-8 -4 -11 -10z"/>
<path d="M6550 5066 c7 -7 13 -7 20 0 6 6 3 10 -10 10 -13 0 -16 -4 -10 -10z"/>
<path d="M8070 5069 c0 -5 5 -7 10 -4 6 3 10 8 10 11 0 2 -4 4 -10 4 -5 0 -10
-5 -10 -11z"/>
<path d="M12710 4969 c0 -5 5 -7 10 -4 6 3 10 8 10 11 0 2 -4 4 -10 4 -5 0
-10 -5 -10 -11z"/>
<path d="M16715 2610 c3 -5 8 -10 11 -10 2 0 4 5 4 10 0 6 -5 10 -11 10 -5 0
-7 -4 -4 -10z"/>
<path d="M11110 1156 c7 -7 14 -6 21 1 9 9 7 12 -9 10 -14 -1 -18 -5 -12 -11z"/>
<path d="M10106 1012 c-2 -4 4 -8 14 -8 10 0 16 4 14 8 -3 4 -9 8 -14 8 -5 0
-11 -4 -14 -8z"/>
<path d="M9215 910 c3 -5 8 -10 11 -10 2 0 4 5 4 10 0 6 -5 10 -11 10 -5 0 -7
-4 -4 -10z"/>
<path d="M14347 549 c7 -7 15 -10 18 -7 3 3 -2 9 -12 12 -14 6 -15 5 -6 -5z"/>
<path d="M11650 70 c0 -5 5 -10 11 -10 5 0 7 5 4 10 -3 6 -8 10 -11 10 -2 0
-4 -4 -4 -10z"/>
</g>
</svg>
